ffmpeg started on 2023-12-08 at 19:03:52
Report written to "ffmpeg-20231208-190352.log"
Log level: 48
Command line:
ffmpeg -report -framerate 30 -i "output/morphed_image_%04d.png" -i output/merged_audio.mp3 -i output/subtitles.srt -map 0:v -c:v libx265 -preset slow -crf 25 -map 1:a -c:a copy -metadata:s:a:0 "language=eng" -map 2:s -c:s mov_text -metadata:s:s:0 "language=eng" -disposition:s:s:0 default+forced -y output/video_audio_srt.mp4
ffmpeg version 2023-08-30-git-7aa71ab5c0-full_build-www.gyan.dev Copyright (c) 2000-2023 the FFmpeg developers
  built with gcc 12.2.0 (Rev10, Built by MSYS2 project)
  configuration: --enable-gpl --enable-version3 --enable-static --disable-w32threads --disable-autodetect --enable-fontconfig --enable-iconv --enable-gnutls --enable-libxml2 --enable-gmp --enable-bzlib --enable-lzma --enable-libsnappy --enable-zlib --enable-librist --enable-libsrt --enable-libssh --enable-libzmq --enable-avisynth --enable-libbluray --enable-libcaca --enable-sdl2 --enable-libaribb24 --enable-libaribcaption --enable-libdav1d --enable-libdavs2 --enable-libuavs3d --enable-libzvbi --enable-librav1e --enable-libsvtav1 --enable-libwebp --enable-libx264 --enable-libx265 --enable-libxavs2 --enable-libxvid --enable-libaom --enable-libjxl --enable-libopenjpeg --enable-libvpx --enable-mediafoundation --enable-libass --enable-frei0r --enable-libfreetype --enable-libfribidi --enable-libharfbuzz --enable-liblensfun --enable-libvidstab --enable-libvmaf --enable-libzimg --enable-amf --enable-cuda-llvm --enable-cuvid --enable-ffnvcodec --enable-nvdec --enable-nvenc --enable-dxva2 --enable-d3d11va --enable-lib  libavutil      58. 17.100 / 58. 17.100
  libavcodec     60. 23.100 / 60. 23.100
  libavformat    60. 10.101 / 60. 10.101
  libavdevice    60.  2.101 / 60.  2.101
  libavfilter     9. 11.100 /  9. 11.100
  libswscale      7.  3.100 /  7.  3.100
  libswresample   4. 11.100 /  4. 11.100
  libpostproc    57.  2.100 / 57.  2.100
Splitting the commandline.
Reading option '-report' ... matched as option 'report' (generate a report) with argument '1'.
Reading option '-framerate' ... matched as AVOption 'framerate' with argument '30'.
Reading option '-i' ... matched as output url with argument 'output/morphed_image_%04d.png'.
Reading option '-i' ... matched as output url with argument 'output/merged_audio.mp3'.
Reading option '-i' ... matched as output url with argument 'output/subtitles.srt'.
Reading option '-map' ... matched as option 'map' (set input stream mapping) with argument '0:v'.
Reading option '-c:v' ... matched as option 'c' (codec name) with argument 'libx265'.
Reading option '-preset' ... matched as AVOption 'preset' with argument 'slow'.
Reading option '-crf' ... matched as AVOption 'crf' with argument '25'.
Reading option '-map' ... matched as option 'map' (set input stream mapping) with argument '1:a'.
Reading option '-c:a' ... matched as option 'c' (codec name) with argument 'copy'.
Reading option '-metadata:s:a:0' ... matched as option 'metadata' (add metadata) with argument 'language=eng'.
Reading option '-map' ... matched as option 'map' (set input stream mapping) with argument '2:s'.
Reading option '-c:s' ... matched as option 'c' (codec name) with argument 'mov_text'.
Reading option '-metadata:s:s:0' ... matched as option 'metadata' (add metadata) with argument 'language=eng'.
Reading option '-disposition:s:s:0' ... matched as option 'disposition' (disposition) with argument 'default+forced'.
Reading option '-y' ... matched as option 'y' (overwrite output files) with argument '1'.
Reading option 'output/video_audio_srt.mp4' ... matched as output url.
Finished splitting the commandline.
Parsing a group of options: global .
Applying option report (generate a report) with argument 1.
Applying option y (overwrite output files) with argument 1.
Successfully parsed a group of options.
Parsing a group of options: input url output/morphed_image_%04d.png.
Successfully parsed a group of options.
Opening an input file: output/morphed_image_%04d.png.
[image2 @ 000002062518f3c0] Opening 'output/morphed_image_0000.png' for reading
[file @ 0000020625196400] Setting default whitelist 'file,crypto,data'
[AVIOContext @ 000002062519e500] Statistics: 1394830 bytes read, 0 seeks
[image2 @ 000002062518f3c0] Opening 'output/morphed_image_0001.png' for reading
[file @ 0000020625196c40] Setting default whitelist 'file,crypto,data'
[AVIOContext @ 00000206251964c0] Statistics: 1394381 bytes read, 0 seeks
[image2 @ 000002062518f3c0] Opening 'output/morphed_image_0002.png' for reading
[file @ 00000206251964c0] Setting default whitelist 'file,crypto,data'
[AVIOContext @ 00000206251b0980] Statistics: 1393223 bytes read, 0 seeks
[image2 @ 000002062518f3c0] Opening 'output/morphed_image_0003.png' for reading
[file @ 00000206251b0b40] Setting default whitelist 'file,crypto,data'
[AVIOContext @ 00000206251b0980] Statistics: 1392374 bytes read, 0 seeks
[image2 @ 000002062518f3c0] Probe buffer size limit of 5000000 bytes reached
Input #0, image2, from 'output/morphed_image_%04d.png':
  Duration: 00:00:10.07, start: 0.000000, bitrate: N/A
  Stream #0:0, 4, 1/30: Video: png, rgb24(pc, gbr/unknown/unknown), 1024x1024, 30 fps, 30 tbr, 30 tbn
Successfully opened the file.
Parsing a group of options: input url output/merged_audio.mp3.
Successfully parsed a group of options.
Opening an input file: output/merged_audio.mp3.
[AVFormatContext @ 00000206251b1380] Opening 'output/merged_audio.mp3' for reading
[file @ 00000206251b17c0] Setting default whitelist 'file,crypto,data'
[mp3 @ 00000206251b1380] Format mp3 probed with size=2048 and score=51
id3v2 ver:4 flags:00 len:35
[mp3 @ 00000206251b1380] pad 576 576
[mp3 @ 00000206251b1380] Skipping 0 bytes of junk at 237.
[mp3 @ 00000206251b1380] Before avformat_find_stream_info() pos: 237 bytes read:32768 seeks:0 nb_streams:1
[mp3 @ 00000206251b1380] demuxer injecting skip 1105 / discard 0
[mp3float @ 0000020625194680] skip 1105 / discard 0 samples due to side data
[mp3float @ 0000020625194680] skip whole frame, skip left: 529
[mp3 @ 00000206251b1380] All info found
[mp3 @ 00000206251b1380] After avformat_find_stream_info() pos: 5357 bytes read:32768 seeks:0 frames:50
Input #1, mp3, from 'output/merged_audio.mp3':
  Metadata:
    encoder         : Lavf60.10.101
  Duration: 00:00:12.58, start: 0.046042, bitrate: 32 kb/s
  Stream #1:0, 50, 1/14112000: Audio: mp3, 24000 Hz, mono, fltp, 32 kb/s
Successfully opened the file.
Parsing a group of options: input url output/subtitles.srt.
Successfully parsed a group of options.
Opening an input file: output/subtitles.srt.
[AVFormatContext @ 00000206251aa240] Opening 'output/subtitles.srt' for reading
[file @ 00000206251b1900] Setting default whitelist 'file,crypto,data'
[srt @ 00000206251aa240] Format srt probed with size=2048 and score=100
[srt @ 00000206251aa240] Before avformat_find_stream_info() pos: 274 bytes read:274 seeks:0 nb_streams:1
[srt @ 00000206251aa240] All info found
[srt @ 00000206251aa240] After avformat_find_stream_info() pos: 274 bytes read:274 seeks:0 frames:0
Input #2, srt, from 'output/subtitles.srt':
  Duration: N/A, bitrate: N/A
  Stream #2:0, 0, 1/1000: Subtitle: subrip
Successfully opened the file.
Parsing a group of options: output url output/video_audio_srt.mp4.
Applying option map (set input stream mapping) with argument 0:v.
Applying option c:v (codec name) with argument libx265.
Applying option map (set input stream mapping) with argument 1:a.
Applying option c:a (codec name) with argument copy.
Applying option metadata:s:a:0 (add metadata) with argument language=eng.
Applying option map (set input stream mapping) with argument 2:s.
Applying option c:s (codec name) with argument mov_text.
Applying option metadata:s:s:0 (add metadata) with argument language=eng.
Applying option disposition:s:s:0 (disposition) with argument default+forced.
Successfully parsed a group of options.
Opening an output file: output/video_audio_srt.mp4.
[out#0/mp4 @ 00000206251aaa40] Adding streams from explicit maps...
[vost#0:0/libx265 @ 00000206251b67c0] Created video stream from input stream 0:0
detected 8 logical cores
[aost#0:1/copy @ 00000206251ec140] Created audio stream from input stream 1:0
[sost#0:2/mov_text @ 00000206251df5c0] Created subtitle stream from input stream 2:0
[file @ 00000206251beac0] Setting default whitelist 'file,crypto,data'
Successfully opened the file.
Stream mapping:
  Stream #0:0 -> #0:0 (png (native) -> hevc (libx265))
  Stream #1:0 -> #0:1 (copy)
  Stream #2:0 -> #0:2 (subrip (srt) -> mov_text (native))
Press [q] to stop, [?] for help
[image2 @ 000002062518f3c0] Opening 'output/morphed_image_0004.png' for reading
[file @ 00000206251b0b40] Setting default whitelist 'file,crypto,data'
[AVIOContext @ 0000020625179240] Statistics: 1391416 bytes read, 0 seeks
[image2 @ 000002062518f3c0] Opening 'output/morphed_image_0005.png' for reading
[file @ 00000206251b0b40] Setting default whitelist 'file,crypto,data'
[AVIOContext @ 0000020625179240] Statistics: 1390319 bytes read, 0 seeks
[image2 @ 000002062518f3c0] Opening 'output/morphed_image_0006.png' for reading
[file @ 00000206251b0b40] Setting default whitelist 'file,crypto,data'
[AVIOContext @ 0000020625179240] Statistics: 1389703 bytes read, 0 seeks
[image2 @ 000002062518f3c0] Opening 'output/morphed_image_0007.png' for reading
[file @ 00000206251b0b40] Setting default whitelist 'file,crypto,data'
[AVIOContext @ 0000020625179240] Statistics: 1389767 bytes read, 0 seeks
[image2 @ 000002062518f3c0] Opening 'output/morphed_image_0008.png' for reading
[file @ 00000206251b0b40] Setting default whitelist 'file,crypto,data'
[AVIOContext @ 0000020625179240] Statistics: 1389676 bytes read, 0 seeks
[in#0/image2 @ 000002062518f240] Thread message queue blocking; consider raising the thread_queue_size option (current value: 8)
[image2 @ 000002062518f3c0] Opening 'output/morphed_image_0009.png' for reading
[file @ 00000206251b0b40] Setting default whitelist 'file,crypto,data'
[AVIOContext @ 0000020625179240] Statistics: 1389533 bytes read, 0 seeks
[image2 @ 000002062518f3c0] Opening 'output/morphed_image_0010.png' for reading
[file @ 00000206251b0b40] Setting default whitelist 'file,crypto,data'
[AVIOContext @ 00000206266d9e80] Statistics: 1389669 bytes read, 0 seeks
[image2 @ 000002062518f3c0] Opening 'output/morphed_image_0011.png' for reading
[file @ 00000206251b0b40] Setting default whitelist 'file,crypto,data'
[AVIOContext @ 00000206266d9e80] Statistics: 1390875 bytes read, 0 seeks
[image2 @ 000002062518f3c0] Opening 'output/morphed_image_0012.png' for reading
[file @ 00000206251b0ac0] Setting default whitelist 'file,crypto,data'
[AVIOContext @ 00000206266d9e80] Statistics: 1391730 bytes read, 0 seeks
[image2 @ 000002062518f3c0] Opening 'output/morphed_image_0013.png' for reading
[file @ 00000206266d9e80] Setting default whitelist 'file,crypto,data'
[AVIOContext @ 0000020625196380] Statistics: 1392792 bytes read, 0 seeks
[image2 @ 000002062518f3c0] Opening 'output/morphed_image_0014.png' for reading
[file @ 00000206266d9e80] Setting default whitelist 'file,crypto,data'
[AVIOContext @ 0000020625196380] Statistics: 1394787 bytes read, 0 seeks
[image2 @ 000002062518f3c0] Opening 'output/morphed_image_0015.png' for reading
[file @ 00000206266d9e80] Setting default whitelist 'file,crypto,data'
[AVIOContext @ 0000020625196380] Statistics: 1396995 bytes read, 0 seeks
[image2 @ 000002062518f3c0] Opening 'output/morphed_image_0016.png' for reading
[file @ 0000020625196380] Setting default whitelist 'file,crypto,data'
[AVIOContext @ 000002062518efc0] Statistics: 1398704 bytes read, 0 seeks
[image2 @ 000002062518f3c0] Opening 'output/morphed_image_0017.png' for reading
[file @ 0000020625196380] Setting default whitelist 'file,crypto,data'
[AVIOContext @ 000002062518efc0] Statistics: 1401275 bytes read, 0 seeks
[graph 0 input from stream 0:0 @ 00000206251edc00] Setting 'video_size' to value '1024x1024'
[graph 0 input from stream 0:0 @ 00000206251edc00] Setting 'pix_fmt' to value '2'
[graph 0 input from stream 0:0 @ 00000206251edc00] Setting 'time_base' to value '1/30'
[graph 0 input from stream 0:0 @ 00000206251edc00] Setting 'pixel_aspect' to value '0/1'
[graph 0 input from stream 0:0 @ 00000206251edc00] Setting 'frame_rate' to value '30/1'
[graph 0 input from stream 0:0 @ 00000206251edc00] w:1024 h:1024 pixfmt:rgb24 tb:1/30 fr:30/1 sar:0/1
[format @ 00000206251ef300] Setting 'pix_fmts' to value 'yuv420p|yuvj420p|yuv422p|yuvj422p|yuv444p|yuvj444p|gbrp|yuv420p10le|yuv422p10le|yuv444p10le|gbrp10le|yuv420p12le|yuv422p12le|yuv444p12le|gbrp12le|gray|gray10le|gray12le'
[auto_scale_0 @ 00000206251ee500] w:iw h:ih flags:'' interl:0
[format @ 00000206251ef300] auto-inserting filter 'auto_scale_0' between the filter 'Parsed_null_0' and the filter 'format'
[AVFilterGraph @ 0000020625196440] query_formats: 4 queried, 2 merged, 1 already done, 0 delayed
[auto_scale_0 @ 00000206251ee500] picking gbrp out of 18 ref:rgb24 alpha:0
[swscaler @ 00000206267354c0] [swscaler @ 00000206267484c0] Forcing full internal H chroma due to input having non subsampled chroma
[swscaler @ 00000206267354c0] [swscaler @ 0000020626756dc0] Forcing full internal H chroma due to input having non subsampled chroma
[swscaler @ 00000206267354c0] [swscaler @ 0000020626765700] Forcing full internal H chroma due to input having non subsampled chroma
[swscaler @ 00000206267354c0] [swscaler @ 0000020626774000] Forcing full internal H chroma due to input having non subsampled chroma
[swscaler @ 00000206267354c0] [swscaler @ 0000020626782940] Forcing full internal H chroma due to input having non subsampled chroma
[swscaler @ 00000206267354c0] [swscaler @ 0000020626791240] Forcing full internal H chroma due to input having non subsampled chroma
[swscaler @ 00000206267354c0] [swscaler @ 000002062679fb80] Forcing full internal H chroma due to input having non subsampled chroma
[swscaler @ 00000206267354c0] [swscaler @ 00000206267ae480] Forcing full internal H chroma due to input having non subsampled chroma
[swscaler @ 00000206267354c0] [swscaler @ 00000206267bcdc0] Forcing full internal H chroma due to input having non subsampled chroma
[auto_scale_0 @ 00000206251ee500] w:1024 h:1024 fmt:rgb24 sar:0/1 -> w:1024 h:1024 fmt:gbrp sar:0/1 flags:0x00000004
[swscaler @ 00000206267354c0] [swscaler @ 00000206267494c0] Forcing full internal H chroma due to input having non subsampled chroma
[swscaler @ 00000206267354c0] [swscaler @ 0000020626757e00] Forcing full internal H chroma due to input having non subsampled chroma
[swscaler @ 00000206267354c0] [swscaler @ 0000020626766700] Forcing full internal H chroma due to input having non subsampled chroma
[swscaler @ 00000206267354c0] [swscaler @ 0000020626775040] Forcing full internal H chroma due to input having non subsampled chroma
[swscaler @ 00000206267354c0] [swscaler @ 0000020626783940] Forcing full internal H chroma due to input having non subsampled chroma
[swscaler @ 00000206267354c0] [swscaler @ 0000020626792280] Forcing full internal H chroma due to input having non subsampled chroma
[swscaler @ 00000206267354c0] [swscaler @ 00000206267a0b80] Forcing full internal H chroma due to input having non subsampled chroma
[swscaler @ 00000206267354c0] [swscaler @ 00000206267af4c0] Forcing full internal H chroma due to input having non subsampled chroma
[swscaler @ 00000206267354c0] [swscaler @ 00000206267bddc0] Forcing full internal H chroma due to input having non subsampled chroma
[auto_scale_0 @ 00000206251ee500] w:1024 h:1024 fmt:rgb24 sar:0/1 -> w:1024 h:1024 fmt:gbrp sar:0/1 flags:0x00000004
[swscaler @ 00000206267354c0] [swscaler @ 00000206267494c0] Forcing full internal H chroma due to input having non subsampled chroma
[swscaler @ 00000206267354c0] [swscaler @ 0000020626757e00] Forcing full internal H chroma due to input having non subsampled chroma
[swscaler @ 00000206267354c0] [swscaler @ 0000020626766700] Forcing full internal H chroma due to input having non subsampled chroma
[swscaler @ 00000206267354c0] [swscaler @ 0000020626775040] Forcing full internal H chroma due to input having non subsampled chroma
[swscaler @ 00000206267354c0] [swscaler @ 0000020626783940] Forcing full internal H chroma due to input having non subsampled chroma
[swscaler @ 00000206267354c0] [swscaler @ 0000020626792280] Forcing full internal H chroma due to input having non subsampled chroma
[swscaler @ 00000206267354c0] [swscaler @ 00000206267a0b80] Forcing full internal H chroma due to input having non subsampled chroma
[swscaler @ 00000206267354c0] [swscaler @ 00000206267af4c0] Forcing full internal H chroma due to input having non subsampled chroma
[swscaler @ 00000206267354c0] [swscaler @ 00000206267bddc0] Forcing full internal H chroma due to input having non subsampled chroma
[auto_scale_0 @ 00000206251ee500] w:1024 h:1024 fmt:rgb24 sar:0/1 -> w:1024 h:1024 fmt:gbrp sar:0/1 flags:0x00000004
[swscaler @ 00000206267354c0] [swscaler @ 00000206267494c0] Forcing full internal H chroma due to input having non subsampled chroma
[swscaler @ 00000206267354c0] [swscaler @ 0000020626757e00] Forcing full internal H chroma due to input having non subsampled chroma
[swscaler @ 00000206267354c0] [swscaler @ 0000020626766700] Forcing full internal H chroma due to input having non subsampled chroma
[swscaler @ 00000206267354c0] [swscaler @ 0000020626775040] Forcing full internal H chroma due to input having non subsampled chroma
[swscaler @ 00000206267354c0] [swscaler @ 0000020626783940] Forcing full internal H chroma due to input having non subsampled chroma
[swscaler @ 00000206267354c0] [swscaler @ 0000020626792280] Forcing full internal H chroma due to input having non subsampled chroma
[swscaler @ 00000206267354c0] [swscaler @ 00000206267a0b80] Forcing full internal H chroma due to input having non subsampled chroma
[swscaler @ 00000206267354c0] [swscaler @ 00000206267af4c0] Forcing full internal H chroma due to input having non subsampled chroma
[swscaler @ 00000206267354c0] [swscaler @ 00000206267bddc0] Forcing full internal H chroma due to input having non subsampled chroma
[auto_scale_0 @ 00000206251ee500] w:1024 h:1024 fmt:rgb24 sar:0/1 -> w:1024 h:1024 fmt:gbrp sar:0/1 flags:0x00000004
Output #0, mp4, to 'output/video_audio_srt.mp4':
  Metadata:
    encoder         : Lavf60.10.101
  Stream #0:0, 0, 1/15360: Video: hevc (hev1 / 0x31766568), gbrp(pc, gbr/unknown/unknown, progressive), 1024x1024, q=2-31, 30 fps, 15360 tbn
    Metadata:
      encoder         : Lavc60.23.100 libx265
    Side data:
      cpb: bitrate max/min/avg: 0/0/0 buffer size: 0 vbv_delay: N/A
  Stream #0:1(eng), 0, 1/24000: Audio: mp3 (mp4a / 0x6134706D), 24000 Hz, mono, fltp, 32 kb/s
  Stream #0:2(eng), 0, 1/1000000: Subtitle: mov_text (tx3g / 0x67337874) (default) (forced)
    Metadata:
      encoder         : Lavc60.23.100 mov_text
frame=    0 fps=0.0 q=0.0 size=       0kB time=N/A bitrate=N/A speed=N/A    [in#2/srt @ 00000206251952c0] EOF while reading input
[in#2/srt @ 00000206251952c0] Terminating demuxer thread
[image2 @ 000002062518f3c0] Opening 'output/morphed_image_0018.png' for reading
[file @ 000002062a4f0000] Setting default whitelist 'file,crypto,data'
[AVIOContext @ 000002062a4eefc0] Statistics: 1404094 bytes read, 0 seeks
[image2 @ 000002062518f3c0] Opening 'output/morphed_image_0019.png' for reading
[file @ 000002062a4ef640] Setting default whitelist 'file,crypto,data'
[AVIOContext @ 000002062a5feb40] Statistics: 1406846 bytes read, 0 seeks
[image2 @ 000002062518f3c0] Opening 'output/morphed_image_0020.png' for reading
[file @ 000002062a4efb40] Setting default whitelist 'file,crypto,data'
[AVIOContext @ 000002062a5ff380] Statistics: 1410100 bytes read, 0 seeks
[image2 @ 000002062518f3c0] Opening 'output/morphed_image_0021.png' for reading
[file @ 000002062a4ef640] Setting default whitelist 'file,crypto,data'
[AVIOContext @ 000002062a5ff4c0] Statistics: 1413287 bytes read, 0 seeks
[image2 @ 000002062518f3c0] Opening 'output/morphed_image_0022.png' for reading
[file @ 000002062a4ef300] Setting default whitelist 'file,crypto,data'
[AVIOContext @ 000002062a5fee00] Statistics: 1416737 bytes read, 0 seeks
[image2 @ 000002062518f3c0] Opening 'output/morphed_image_0023.png' for reading
[file @ 000002062a4ef980] Setting default whitelist 'file,crypto,data'
[AVIOContext @ 000002062a5ff0c0] Statistics: 1420364 bytes read, 0 seeks
[image2 @ 000002062518f3c0] Opening 'output/morphed_image_0024.png' for reading
[file @ 000002062a4ef980] Setting default whitelist 'file,crypto,data'
[AVIOContext @ 000002062a5ff200] Statistics: 1424119 bytes read, 0 seeks
[image2 @ 000002062518f3c0] Opening 'output/morphed_image_0025.png' for reading
[file @ 000002062a4efdc0] Setting default whitelist 'file,crypto,data'
[AVIOContext @ 000002062a5ff0c0] Statistics: 1428737 bytes read, 0 seeks
[image2 @ 000002062518f3c0] Opening 'output/morphed_image_0026.png' for reading
[file @ 000002062a4efc00] Setting default whitelist 'file,crypto,data'
[AVIOContext @ 000002062a5ff900] Statistics: 1431410 bytes read, 0 seeks
[image2 @ 000002062518f3c0] Opening 'output/morphed_image_0027.png' for reading
[file @ 000002062a4ef800] Setting default whitelist 'file,crypto,data'
[AVIOContext @ 000002062a5ff380] Statistics: 1435928 bytes read, 0 seeks
[image2 @ 000002062518f3c0] Opening 'output/morphed_image_0028.png' for reading
[file @ 000002062a4ef980] Setting default whitelist 'file,crypto,data'
[AVIOContext @ 000002062a5fee00] Statistics: 1440310 bytes read, 0 seeks
[image2 @ 000002062518f3c0] Opening 'output/morphed_image_0029.png' for reading
[file @ 000002062a4ef180] Setting default whitelist 'file,crypto,data'
[AVIOContext @ 000002062a5ff380] Statistics: 1444434 bytes read, 0 seeks
[image2 @ 000002062518f3c0] Opening 'output/morphed_image_0030.png' for reading
[file @ 000002062a4efc00] Setting default whitelist 'file,crypto,data'
[AVIOContext @ 000002062a5ff4c0] Statistics: 1448774 bytes read, 0 seeks
[image2 @ 000002062518f3c0] Opening 'output/morphed_image_0031.png' for reading
[file @ 000002062a4efdc0] Setting default whitelist 'file,crypto,data'
[AVIOContext @ 000002062a5fee00] Statistics: 1453505 bytes read, 0 seeks
[image2 @ 000002062518f3c0] Opening 'output/morphed_image_0032.png' for reading
[file @ 000002062a4efe80] Setting default whitelist 'file,crypto,data'
[AVIOContext @ 000002062a5ff0c0] Statistics: 1458233 bytes read, 0 seeks
[image2 @ 000002062518f3c0] Opening 'output/morphed_image_0033.png' for reading
[file @ 000002062a4efe80] Setting default whitelist 'file,crypto,data'
[AVIOContext @ 000002062a5ff4c0] Statistics: 1463081 bytes read, 0 seeks
[image2 @ 000002062518f3c0] Opening 'output/morphed_image_0034.png' for reading
[file @ 000002062a4efe80] Setting default whitelist 'file,crypto,data'
[AVIOContext @ 000002062a5ff780] Statistics: 1468145 bytes read, 0 seeks
[image2 @ 000002062518f3c0] Opening 'output/morphed_image_0035.png' for reading
[file @ 000002062a4ef400] Setting default whitelist 'file,crypto,data'
[AVIOContext @ 000002062a5ff780] Statistics: 1472972 bytes read, 0 seeks
[image2 @ 000002062518f3c0] Opening 'output/morphed_image_0036.png' for reading
[file @ 00000206308fb700] Setting default whitelist 'file,crypto,data'
[AVIOContext @ 000002062a5fec80] Statistics: 1477870 bytes read, 0 seeks
[image2 @ 000002062518f3c0] Opening 'output/morphed_image_0037.png' for reading
[file @ 00000206308fc740] Setting default whitelist 'file,crypto,data'
[AVIOContext @ 000002062a5ff4c0] Statistics: 1482776 bytes read, 0 seeks
[image2 @ 000002062518f3c0] Opening 'output/morphed_image_0038.png' for reading
[file @ 00000206308fbe40] Setting default whitelist 'file,crypto,data'
[AVIOContext @ 000002062a5ff0c0] Statistics: 1487462 bytes read, 0 seeks
[image2 @ 000002062518f3c0] Opening 'output/morphed_image_0039.png' for reading
[file @ 00000206308fbf00] Setting default whitelist 'file,crypto,data'
[AVIOContext @ 000002062a5fef40] Statistics: 1493065 bytes read, 0 seeks
[image2 @ 000002062518f3c0] Opening 'output/morphed_image_0040.png' for reading
[file @ 00000206308fafc0] Setting default whitelist 'file,crypto,data'
[AVIOContext @ 000002062a5ff900] Statistics: 1498557 bytes read, 0 seeks
[image2 @ 000002062518f3c0] Opening 'output/morphed_image_0041.png' for reading
[file @ 00000206308fbb00] Setting default whitelist 'file,crypto,data'
[AVIOContext @ 000002062a5ff0c0] Statistics: 1503687 bytes read, 0 seeks
[image2 @ 000002062518f3c0] Opening 'output/morphed_image_0042.png' for reading
[file @ 00000206308fbe40] Setting default whitelist 'file,crypto,data'
[AVIOContext @ 000002062a5feb40] Statistics: 1508960 bytes read, 0 seeks
[image2 @ 000002062518f3c0] Opening 'output/morphed_image_0043.png' for reading
[file @ 00000206308fc000] Setting default whitelist 'file,crypto,data'
[AVIOContext @ 000002062a5ff200] Statistics: 1514140 bytes read, 0 seeks
[image2 @ 000002062518f3c0] Opening 'output/morphed_image_0044.png' for reading
[file @ 00000206308faa00] Setting default whitelist 'file,crypto,data'
[AVIOContext @ 000002062a5ff200] Statistics: 1520035 bytes read, 0 seeks
[image2 @ 000002062518f3c0] Opening 'output/morphed_image_0045.png' for reading
[file @ 00000206308faa00] Setting default whitelist 'file,crypto,data'
[AVIOContext @ 000002062a5ff640] Statistics: 1525980 bytes read, 0 seeks
[image2 @ 000002062518f3c0] Opening 'output/morphed_image_0046.png' for reading
[file @ 00000206308fafc0] Setting default whitelist 'file,crypto,data'
[AVIOContext @ 000002062a5fef40] Statistics: 1530652 bytes read, 0 seeks
[image2 @ 000002062518f3c0] Opening 'output/morphed_image_0047.png' for reading
[file @ 00000206308fbf00] Setting default whitelist 'file,crypto,data'
[AVIOContext @ 000002062a5fee00] Statistics: 1535919 bytes read, 0 seeks
[image2 @ 000002062518f3c0] Opening 'output/morphed_image_0048.png' for reading
[file @ 00000206308faac0] Setting default whitelist 'file,crypto,data'
[AVIOContext @ 000002062a5ff200] Statistics: 1541490 bytes read, 0 seeks
[image2 @ 000002062518f3c0] Opening 'output/morphed_image_0049.png' for reading
[file @ 00000206308fc240] Setting default whitelist 'file,crypto,data'
[AVIOContext @ 000002062a5ff0c0] Statistics: 1546851 bytes read, 0 seeks
[image2 @ 000002062518f3c0] Opening 'output/morphed_image_0050.png' for reading
[file @ 00000206308fc340] Setting default whitelist 'file,crypto,data'
[AVIOContext @ 000002062a5ff0c0] Statistics: 1551919 bytes read, 0 seeks
[image2 @ 000002062518f3c0] Opening 'output/morphed_image_0051.png' for reading
[file @ 00000206308fb480] Setting default whitelist 'file,crypto,data'
[AVIOContext @ 000002062a5ff200] Statistics: 1557897 bytes read, 0 seeks
frame=    1 fps=0.0 q=24.7 size=       0kB time=00:00:04.00 bitrate=   0.1kbits/s speed=6.52x    [image2 @ 000002062518f3c0] Opening 'output/morphed_image_0052.png' for reading
[file @ 00000206308fbe40] Setting default whitelist 'file,crypto,data'
[AVIOContext @ 000002062a5fef40] Statistics: 1563937 bytes read, 0 seeks
[image2 @ 000002062518f3c0] Opening 'output/morphed_image_0053.png' for reading
[file @ 00000206308fbe40] Setting default whitelist 'file,crypto,data'
[AVIOContext @ 000002062a5fec80] Statistics: 1569554 bytes read, 0 seeks
[image2 @ 000002062518f3c0] Opening 'output/morphed_image_0054.png' for reading
[file @ 00000206308fac80] Setting default whitelist 'file,crypto,data'
[AVIOContext @ 000002062a5ff780] Statistics: 1575040 bytes read, 0 seeks
[image2 @ 000002062518f3c0] Opening 'output/morphed_image_0055.png' for reading
[file @ 00000206308fac80] Setting default whitelist 'file,crypto,data'
[AVIOContext @ 000002062a5ff900] Statistics: 1580488 bytes read, 0 seeks
[image2 @ 000002062518f3c0] Opening 'output/morphed_image_0056.png' for reading
[file @ 00000206308fc180] Setting default whitelist 'file,crypto,data'
[AVIOContext @ 000002062a5fee00] Statistics: 1586140 bytes read, 0 seeks
[image2 @ 000002062518f3c0] Opening 'output/morphed_image_0057.png' for reading
[file @ 00000206308fb640] Setting default whitelist 'file,crypto,data'
[AVIOContext @ 000002062a5ff640] Statistics: 1591211 bytes read, 0 seeks
[image2 @ 000002062518f3c0] Opening 'output/morphed_image_0058.png' for reading
[file @ 00000206308fad40] Setting default whitelist 'file,crypto,data'
[AVIOContext @ 000002062a5feb40] Statistics: 1597171 bytes read, 0 seeks
[image2 @ 000002062518f3c0] Opening 'output/morphed_image_0059.png' for reading
[file @ 00000206308fb640] Setting default whitelist 'file,crypto,data'
[AVIOContext @ 000002062a5fee00] Statistics: 1602664 bytes read, 0 seeks
[image2 @ 000002062518f3c0] Opening 'output/morphed_image_0060.png' for reading
[file @ 00000206308fad40] Setting default whitelist 'file,crypto,data'
[AVIOContext @ 000002062a5ff200] Statistics: 1607827 bytes read, 0 seeks
[image2 @ 000002062518f3c0] Opening 'output/morphed_image_0061.png' for reading
[file @ 00000206308fb640] Setting default whitelist 'file,crypto,data'
[AVIOContext @ 000002062a5ff380] Statistics: 1613691 bytes read, 0 seeks
[image2 @ 000002062518f3c0] Opening 'output/morphed_image_0062.png' for reading
[file @ 00000206308fad40] Setting default whitelist 'file,crypto,data'
[AVIOContext @ 000002062a5ff780] Statistics: 1619265 bytes read, 0 seeks
frame=   12 fps= 11 q=24.9 size=       0kB time=00:00:04.00 bitrate=   0.1kbits/s speed=3.55x    [image2 @ 000002062518f3c0] Opening 'output/morphed_image_0063.png' for reading
[file @ 00000206308fad40] Setting default whitelist 'file,crypto,data'
[AVIOContext @ 000002062a5ff4c0] Statistics: 1624786 bytes read, 0 seeks
[image2 @ 000002062518f3c0] Opening 'output/morphed_image_0064.png' for reading
[file @ 00000206308fae00] Setting default whitelist 'file,crypto,data'
[AVIOContext @ 000002062a5feb40] Statistics: 1630407 bytes read, 0 seeks
[image2 @ 000002062518f3c0] Opening 'output/morphed_image_0065.png' for reading
[file @ 00000206308fad40] Setting default whitelist 'file,crypto,data'
[AVIOContext @ 000002062a5fee00] Statistics: 1635938 bytes read, 0 seeks
[image2 @ 000002062518f3c0] Opening 'output/morphed_image_0066.png' for reading
[file @ 00000206308fc240] Setting default whitelist 'file,crypto,data'
[AVIOContext @ 000002062a5feb40] Statistics: 1641281 bytes read, 0 seeks
[image2 @ 000002062518f3c0] Opening 'output/morphed_image_0067.png' for reading
[file @ 00000206308fae00] Setting default whitelist 'file,crypto,data'
[AVIOContext @ 000002062a5ff200] Statistics: 1646612 bytes read, 0 seeks
[image2 @ 000002062518f3c0] Opening 'output/morphed_image_0068.png' for reading
[file @ 00000206308fc180] Setting default whitelist 'file,crypto,data'
[AVIOContext @ 000002062a5ff780] Statistics: 1652280 bytes read, 0 seeks
[image2 @ 000002062518f3c0] Opening 'output/morphed_image_0069.png' for reading
[file @ 00000206308fc180] Setting default whitelist 'file,crypto,data'
[AVIOContext @ 000002062a5ff200] Statistics: 1657690 bytes read, 0 seeks
[image2 @ 000002062518f3c0] Opening 'output/morphed_image_0070.png' for reading
[file @ 00000206308fc180] Setting default whitelist 'file,crypto,data'
[AVIOContext @ 000002062a5ff200] Statistics: 1663227 bytes read, 0 seeks
[image2 @ 000002062518f3c0] Opening 'output/morphed_image_0071.png' for reading
[file @ 00000206308fc340] Setting default whitelist 'file,crypto,data'
[AVIOContext @ 000002062a5fec80] Statistics: 1668930 bytes read, 0 seeks
frame=   21 fps= 13 q=24.7 size=       0kB time=00:00:04.00 bitrate=   0.1kbits/s speed=2.46x    [image2 @ 000002062518f3c0] Opening 'output/morphed_image_0072.png' for reading
[file @ 00000206308fc180] Setting default whitelist 'file,crypto,data'
[AVIOContext @ 000002062a5ff200] Statistics: 1673994 bytes read, 0 seeks
[image2 @ 000002062518f3c0] Opening 'output/morphed_image_0073.png' for reading
[file @ 00000206308fb640] Setting default whitelist 'file,crypto,data'
[AVIOContext @ 000002062a5ff380] Statistics: 1679262 bytes read, 0 seeks
[image2 @ 000002062518f3c0] Opening 'output/morphed_image_0074.png' for reading
[file @ 00000206308fb7c0] Setting default whitelist 'file,crypto,data'
[AVIOContext @ 000002062a5ff200] Statistics: 1684109 bytes read, 0 seeks
[image2 @ 000002062518f3c0] Opening 'output/morphed_image_0075.png' for reading
[file @ 00000206308fad40] Setting default whitelist 'file,crypto,data'
[AVIOContext @ 000002062a5fec80] Statistics: 1677690 bytes read, 0 seeks
[image2 @ 000002062518f3c0] Opening 'output/morphed_image_0076.png' for reading
[file @ 00000206308fad40] Setting default whitelist 'file,crypto,data'
[AVIOContext @ 000002062a5fec80] Statistics: 1694588 bytes read, 0 seeks
[image2 @ 000002062518f3c0] Opening 'output/morphed_image_0077.png' for reading
[file @ 00000206308fc180] Setting default whitelist 'file,crypto,data'
[AVIOContext @ 000002062a5fec80] Statistics: 1700321 bytes read, 0 seeks
[image2 @ 000002062518f3c0] Opening 'output/morphed_image_0078.png' for reading
[file @ 00000206308fb700] Setting default whitelist 'file,crypto,data'
[AVIOContext @ 000002062a5ff780] Statistics: 1705821 bytes read, 0 seeks
[image2 @ 000002062518f3c0] Opening 'output/morphed_image_0079.png' for reading
[file @ 00000206308fc180] Setting default whitelist 'file,crypto,data'
[AVIOContext @ 000002062a5ff0c0] Statistics: 1711183 bytes read, 0 seeks
[image2 @ 000002062518f3c0] Opening 'output/morphed_image_0080.png' for reading
[file @ 00000206308fc180] Setting default whitelist 'file,crypto,data'
[AVIOContext @ 000002062a5ff4c0] Statistics: 1716664 bytes read, 0 seeks
frame=   30 fps= 14 q=24.1 size=       0kB time=00:00:04.00 bitrate=   0.1kbits/s speed=1.86x    [image2 @ 000002062518f3c0] Opening 'output/morphed_image_0081.png' for reading
[file @ 00000206308fad40] Setting default whitelist 'file,crypto,data'
[AVIOContext @ 000002062a5ff380] Statistics: 1722079 bytes read, 0 seeks
[image2 @ 000002062518f3c0] Opening 'output/morphed_image_0082.png' for reading
[file @ 00000206308fae00] Setting default whitelist 'file,crypto,data'
[AVIOContext @ 000002062a5fee00] Statistics: 1727444 bytes read, 0 seeks
[image2 @ 000002062518f3c0] Opening 'output/morphed_image_0083.png' for reading
[file @ 00000206308fc180] Setting default whitelist 'file,crypto,data'
[AVIOContext @ 000002062a5fef40] Statistics: 1732682 bytes read, 0 seeks
[image2 @ 000002062518f3c0] Opening 'output/morphed_image_0084.png' for reading
[file @ 00000206308fad40] Setting default whitelist 'file,crypto,data'
[AVIOContext @ 000002062a5ff640] Statistics: 1737630 bytes read, 0 seeks
[image2 @ 000002062518f3c0] Opening 'output/morphed_image_0085.png' for reading
[file @ 00000206308fc180] Setting default whitelist 'file,crypto,data'
[AVIOContext @ 000002062a5ff0c0] Statistics: 1742835 bytes read, 0 seeks
[image2 @ 000002062518f3c0] Opening 'output/morphed_image_0086.png' for reading
[file @ 00000206308fc400] Setting default whitelist 'file,crypto,data'
[AVIOContext @ 000002062a5ff380] Statistics: 1747911 bytes read, 0 seeks
[image2 @ 000002062518f3c0] Opening 'output/morphed_image_0087.png' for reading
[file @ 00000206308fc180] Setting default whitelist 'file,crypto,data'
[AVIOContext @ 000002062a5fef40] Statistics: 1753087 bytes read, 0 seeks
[image2 @ 000002062518f3c0] Opening 'output/morphed_image_0088.png' for reading
[file @ 00000206308fae00] Setting default whitelist 'file,crypto,data'
[AVIOContext @ 000002062a5ff0c0] Statistics: 1758193 bytes read, 0 seeks
[image2 @ 000002062518f3c0] Opening 'output/morphed_image_0089.png' for reading
[file @ 00000206308fb640] Setting default whitelist 'file,crypto,data'
[AVIOContext @ 000002062a5ff780] Statistics: 1763333 bytes read, 0 seeks
frame=   39 fps= 14 q=23.6 size=       0kB time=00:00:04.00 bitrate=   0.1kbits/s speed=1.48x    [image2 @ 000002062518f3c0] Opening 'output/morphed_image_0090.png' for reading
[file @ 00000206308fc180] Setting default whitelist 'file,crypto,data'
[AVIOContext @ 000002062a5ff200] Statistics: 1768214 bytes read, 0 seeks
[image2 @ 000002062518f3c0] Opening 'output/morphed_image_0091.png' for reading
[file @ 00000206308fafc0] Setting default whitelist 'file,crypto,data'
[AVIOContext @ 000002062a5ff0c0] Statistics: 1773243 bytes read, 0 seeks
[image2 @ 000002062518f3c0] Opening 'output/morphed_image_0092.png' for reading
[file @ 00000206308fafc0] Setting default whitelist 'file,crypto,data'
[AVIOContext @ 000002062a5ff380] Statistics: 1778428 bytes read, 0 seeks
[image2 @ 000002062518f3c0] Opening 'output/morphed_image_0093.png' for reading
[file @ 00000206308fc180] Setting default whitelist 'file,crypto,data'
[AVIOContext @ 000002062a5fee00] Statistics: 1783522 bytes read, 0 seeks
[image2 @ 000002062518f3c0] Opening 'output/morphed_image_0094.png' for reading
[file @ 00000206308fb640] Setting default whitelist 'file,crypto,data'
[AVIOContext @ 000002062a5feb40] Statistics: 1788217 bytes read, 0 seeks
[image2 @ 000002062518f3c0] Opening 'output/morphed_image_0095.png' for reading
[file @ 00000206308fc180] Setting default whitelist 'file,crypto,data'
[AVIOContext @ 000002062a5feb40] Statistics: 1793009 bytes read, 0 seeks
[image2 @ 000002062518f3c0] Opening 'output/morphed_image_0096.png' for reading
[file @ 00000206308fb640] Setting default whitelist 'file,crypto,data'
[AVIOContext @ 000002062a5ff380] Statistics: 1797911 bytes read, 0 seeks
[image2 @ 000002062518f3c0] Opening 'output/morphed_image_0097.png' for reading
[file @ 00000206308fc340] Setting default whitelist 'file,crypto,data'
[AVIOContext @ 000002062a5fec80] Statistics: 1802951 bytes read, 0 seeks
frame=   47 fps= 14 q=23.6 size=       0kB time=00:00:04.00 bitrate=   0.1kbits/s speed=1.23x    [image2 @ 000002062518f3c0] Opening 'output/morphed_image_0098.png' for reading
[file @ 00000206308fb640] Setting default whitelist 'file,crypto,data'
[AVIOContext @ 000002062a5ff0c0] Statistics: 1807761 bytes read, 0 seeks
[image2 @ 000002062518f3c0] Opening 'output/morphed_image_0099.png' for reading
[file @ 00000206308fad40] Setting default whitelist 'file,crypto,data'
[AVIOContext @ 000002062a5fee00] Statistics: 1812668 bytes read, 0 seeks
[image2 @ 000002062518f3c0] Opening 'output/morphed_image_0100.png' for reading
[file @ 00000206308fc180] Setting default whitelist 'file,crypto,data'
[AVIOContext @ 000002062a5ff640] Statistics: 1817051 bytes read, 0 seeks
[image2 @ 000002062518f3c0] Opening 'output/morphed_image_0101.png' for reading
[file @ 00000206308fc180] Setting default whitelist 'file,crypto,data'
[AVIOContext @ 000002062a5fef40] Statistics: 1821854 bytes read, 0 seeks
[image2 @ 000002062518f3c0] Opening 'output/morphed_image_0102.png' for reading
[file @ 00000206308fad40] Setting default whitelist 'file,crypto,data'
[AVIOContext @ 000002062a5ff380] Statistics: 1826903 bytes read, 0 seeks
[image2 @ 000002062518f3c0] Opening 'output/morphed_image_0103.png' for reading
[file @ 00000206308fc180] Setting default whitelist 'file,crypto,data'
[AVIOContext @ 000002062a5fef40] Statistics: 1831763 bytes read, 0 seeks
[image2 @ 000002062518f3c0] Opening 'output/morphed_image_0104.png' for reading
[file @ 00000206308fad40] Setting default whitelist 'file,crypto,data'
[AVIOContext @ 000002062a5ff900] Statistics: 1836361 bytes read, 0 seeks
[image2 @ 000002062518f3c0] Opening 'output/morphed_image_0105.png' for reading
[file @ 00000206308fc180] Setting default whitelist 'file,crypto,data'
[AVIOContext @ 000002062a5ff380] Statistics: 1840842 bytes read, 0 seeks
frame=   55 fps= 15 q=23.4 size=     256kB time=00:00:04.00 bitrate= 524.4kbits/s speed=1.07x    [image2 @ 000002062518f3c0] Opening 'output/morphed_image_0106.png' for reading
[file @ 00000206308fb640] Setting default whitelist 'file,crypto,data'
[AVIOContext @ 000002062a5ff200] Statistics: 1845622 bytes read, 0 seeks
[image2 @ 000002062518f3c0] Opening 'output/morphed_image_0107.png' for reading
[file @ 00000206308fc180] Setting default whitelist 'file,crypto,data'
[AVIOContext @ 000002062a5ff780] Statistics: 1850413 bytes read, 0 seeks
[image2 @ 000002062518f3c0] Opening 'output/morphed_image_0108.png' for reading
[file @ 00000206308fad40] Setting default whitelist 'file,crypto,data'
[AVIOContext @ 000002062a5ff380] Statistics: 1854865 bytes read, 0 seeks
[image2 @ 000002062518f3c0] Opening 'output/morphed_image_0109.png' for reading
[file @ 00000206308fb640] Setting default whitelist 'file,crypto,data'
[AVIOContext @ 000002062a5ff0c0] Statistics: 1859451 bytes read, 0 seeks
[image2 @ 000002062518f3c0] Opening 'output/morphed_image_0110.png' for reading
[file @ 00000206308fad40] Setting default whitelist 'file,crypto,data'
[AVIOContext @ 000002062a5feb40] Statistics: 1863932 bytes read, 0 seeks
[image2 @ 000002062518f3c0] Opening 'output/morphed_image_0111.png' for reading
[file @ 00000206308fb640] Setting default whitelist 'file,crypto,data'
[AVIOContext @ 000002062a5fef40] Statistics: 1868629 bytes read, 0 seeks
[image2 @ 000002062518f3c0] Opening 'output/morphed_image_0112.png' for reading
[file @ 00000206308fb7c0] Setting default whitelist 'file,crypto,data'
[AVIOContext @ 000002062a5fee00] Statistics: 1872882 bytes read, 0 seeks
frame=   62 fps= 15 q=22.9 size=     256kB time=00:00:04.00 bitrate= 524.4kbits/s speed=0.936x    [image2 @ 000002062518f3c0] Opening 'output/morphed_image_0113.png' for reading
[file @ 00000206308fafc0] Setting default whitelist 'file,crypto,data'
[AVIOContext @ 000002062a5fef40] Statistics: 1877295 bytes read, 0 seeks
[image2 @ 000002062518f3c0] Opening 'output/morphed_image_0114.png' for reading
[file @ 00000206308fad40] Setting default whitelist 'file,crypto,data'
[AVIOContext @ 000002062a5ff200] Statistics: 1881756 bytes read, 0 seeks
[image2 @ 000002062518f3c0] Opening 'output/morphed_image_0115.png' for reading
[file @ 00000206308fc180] Setting default whitelist 'file,crypto,data'
[AVIOContext @ 000002062a5ff900] Statistics: 1886095 bytes read, 0 seeks
[image2 @ 000002062518f3c0] Opening 'output/morphed_image_0116.png' for reading
[file @ 00000206308fad40] Setting default whitelist 'file,crypto,data'
[AVIOContext @ 000002062a5ff900] Statistics: 1890742 bytes read, 0 seeks
[image2 @ 000002062518f3c0] Opening 'output/morphed_image_0117.png' for reading
[file @ 00000206308fad40] Setting default whitelist 'file,crypto,data'
[AVIOContext @ 000002062a5fec80] Statistics: 1894944 bytes read, 0 seeks
[image2 @ 000002062518f3c0] Opening 'output/morphed_image_0118.png' for reading
[file @ 00000206308fad40] Setting default whitelist 'file,crypto,data'
[AVIOContext @ 000002062a5feb40] Statistics: 1899474 bytes read, 0 seeks
frame=   68 fps= 14 q=22.6 size=     256kB time=00:00:04.00 bitrate= 524.4kbits/s speed=0.837x    [image2 @ 000002062518f3c0] Opening 'output/morphed_image_0119.png' for reading
[file @ 00000206308fc180] Setting default whitelist 'file,crypto,data'
[AVIOContext @ 000002062a5fef40] Statistics: 1903808 bytes read, 0 seeks
[image2 @ 000002062518f3c0] Opening 'output/morphed_image_0120.png' for reading
[file @ 00000206308fafc0] Setting default whitelist 'file,crypto,data'
[AVIOContext @ 000002062a5ff780] Statistics: 1908099 bytes read, 0 seeks
[image2 @ 000002062518f3c0] Opening 'output/morphed_image_0121.png' for reading
[file @ 00000206308fb640] Setting default whitelist 'file,crypto,data'
[AVIOContext @ 000002062a5feb40] Statistics: 1912420 bytes read, 0 seeks
[image2 @ 000002062518f3c0] Opening 'output/morphed_image_0122.png' for reading
[file @ 00000206308fb640] Setting default whitelist 'file,crypto,data'
[AVIOContext @ 000002062a5ff780] Statistics: 1916782 bytes read, 0 seeks
[image2 @ 000002062518f3c0] Opening 'output/morphed_image_0123.png' for reading
[file @ 00000206308fc180] Setting default whitelist 'file,crypto,data'
[AVIOContext @ 000002062a5ff780] Statistics: 1921004 bytes read, 0 seeks
[image2 @ 000002062518f3c0] Opening 'output/morphed_image_0124.png' for reading
[file @ 00000206308fad40] Setting default whitelist 'file,crypto,data'
[AVIOContext @ 000002062a5ff4c0] Statistics: 1925182 bytes read, 0 seeks
[image2 @ 000002062518f3c0] Opening 'output/morphed_image_0125.png' for reading
[file @ 00000206308fb640] Setting default whitelist 'file,crypto,data'
[AVIOContext @ 000002062a5fec80] Statistics: 1929196 bytes read, 0 seeks
[image2 @ 000002062518f3c0] Opening 'output/morphed_image_0126.png' for reading
[file @ 00000206308fad40] Setting default whitelist 'file,crypto,data'
[AVIOContext @ 000002062a5ff200] Statistics: 1933556 bytes read, 0 seeks
frame=   76 fps= 14 q=22.7 size=     256kB time=00:00:04.00 bitrate= 524.4kbits/s speed=0.753x    [image2 @ 000002062518f3c0] Opening 'output/morphed_image_0127.png' for reading
[file @ 00000206308fc240] Setting default whitelist 'file,crypto,data'
[AVIOContext @ 000002062a5ff780] Statistics: 1937698 bytes read, 0 seeks
[image2 @ 000002062518f3c0] Opening 'output/morphed_image_0128.png' for reading
[file @ 00000206308fb640] Setting default whitelist 'file,crypto,data'
[AVIOContext @ 000002062a5fef40] Statistics: 1941976 bytes read, 0 seeks
[image2 @ 000002062518f3c0] Opening 'output/morphed_image_0129.png' for reading
[file @ 00000206308fc180] Setting default whitelist 'file,crypto,data'
[AVIOContext @ 000002062a5fee00] Statistics: 1946103 bytes read, 0 seeks
[image2 @ 000002062518f3c0] Opening 'output/morphed_image_0130.png' for reading
[file @ 00000206308fc180] Setting default whitelist 'file,crypto,data'
[AVIOContext @ 000002062a5ff640] Statistics: 1950381 bytes read, 0 seeks
[image2 @ 000002062518f3c0] Opening 'output/morphed_image_0131.png' for reading
[file @ 00000206308fad40] Setting default whitelist 'file,crypto,data'
[AVIOContext @ 000002062a5ff900] Statistics: 1954493 bytes read, 0 seeks
[image2 @ 000002062518f3c0] Opening 'output/morphed_image_0132.png' for reading
[file @ 00000206308fad40] Setting default whitelist 'file,crypto,data'
[AVIOContext @ 000002062a5ff780] Statistics: 1958431 bytes read, 0 seeks
[image2 @ 000002062518f3c0] Opening 'output/morphed_image_0133.png' for reading
[file @ 00000206308fb640] Setting default whitelist 'file,crypto,data'
[AVIOContext @ 000002062a5ff640] Statistics: 1962482 bytes read, 0 seeks
frame=   83 fps= 14 q=22.8 size=     256kB time=00:00:04.00 bitrate= 524.4kbits/s speed=0.687x    [image2 @ 000002062518f3c0] Opening 'output/morphed_image_0134.png' for reading
[file @ 00000206308fad40] Setting default whitelist 'file,crypto,data'
[AVIOContext @ 000002062a5fec80] Statistics: 1966506 bytes read, 0 seeks
[image2 @ 000002062518f3c0] Opening 'output/morphed_image_0135.png' for reading
[file @ 00000206308fad40] Setting default whitelist 'file,crypto,data'
[AVIOContext @ 000002062a5feb40] Statistics: 1970312 bytes read, 0 seeks
[image2 @ 000002062518f3c0] Opening 'output/morphed_image_0136.png' for reading
[file @ 00000206308fc180] Setting default whitelist 'file,crypto,data'
[AVIOContext @ 000002062a5ff900] Statistics: 1974435 bytes read, 0 seeks
[image2 @ 000002062518f3c0] Opening 'output/morphed_image_0137.png' for reading
[file @ 00000206308fad40] Setting default whitelist 'file,crypto,data'
[AVIOContext @ 000002062a5fee00] Statistics: 1978302 bytes read, 0 seeks
[image2 @ 000002062518f3c0] Opening 'output/morphed_image_0138.png' for reading
[file @ 00000206308fb880] Setting default whitelist 'file,crypto,data'
[AVIOContext @ 000002062a5ff4c0] Statistics: 1982163 bytes read, 0 seeks
[image2 @ 000002062518f3c0] Opening 'output/morphed_image_0139.png' for reading
[file @ 00000206308fafc0] Setting default whitelist 'file,crypto,data'
[AVIOContext @ 000002062a5ff900] Statistics: 1986053 bytes read, 0 seeks
[image2 @ 000002062518f3c0] Opening 'output/morphed_image_0140.png' for reading
[file @ 00000206308fc180] Setting default whitelist 'file,crypto,data'
[AVIOContext @ 000002062a5fef40] Statistics: 1989939 bytes read, 0 seeks
frame=   90 fps= 14 q=22.9 size=     512kB time=00:00:09.00 bitrate= 466.1kbits/s speed=1.42x    [image2 @ 000002062518f3c0] Opening 'output/morphed_image_0141.png' for reading
[file @ 00000206308fad40] Setting default whitelist 'file,crypto,data'
[AVIOContext @ 000002062a5fec80] Statistics: 1993940 bytes read, 0 seeks
[image2 @ 000002062518f3c0] Opening 'output/morphed_image_0142.png' for reading
[file @ 00000206308fc340] Setting default whitelist 'file,crypto,data'
[AVIOContext @ 000002062a5ff900] Statistics: 1997767 bytes read, 0 seeks
[image2 @ 000002062518f3c0] Opening 'output/morphed_image_0143.png' for reading
[file @ 00000206308fafc0] Setting default whitelist 'file,crypto,data'
[AVIOContext @ 000002062a5fee00] Statistics: 2001569 bytes read, 0 seeks
[image2 @ 000002062518f3c0] Opening 'output/morphed_image_0144.png' for reading
[file @ 00000206308fc180] Setting default whitelist 'file,crypto,data'
[AVIOContext @ 000002062a5fef40] Statistics: 2005655 bytes read, 0 seeks
[image2 @ 000002062518f3c0] Opening 'output/morphed_image_0145.png' for reading
[file @ 00000206308fc180] Setting default whitelist 'file,crypto,data'
[AVIOContext @ 000002062a5fec80] Statistics: 2009277 bytes read, 0 seeks
[image2 @ 000002062518f3c0] Opening 'output/morphed_image_0146.png' for reading
[file @ 00000206308fc180] Setting default whitelist 'file,crypto,data'
[AVIOContext @ 000002062a5ff200] Statistics: 2013204 bytes read, 0 seeks
[image2 @ 000002062518f3c0] Opening 'output/morphed_image_0147.png' for reading
[file @ 00000206308fad40] Setting default whitelist 'file,crypto,data'
[AVIOContext @ 000002062a5ff200] Statistics: 2017019 bytes read, 0 seeks
frame=   97 fps= 14 q=22.7 size=     512kB time=00:00:09.00 bitrate= 466.1kbits/s speed=1.31x    [image2 @ 000002062518f3c0] Opening 'output/morphed_image_0148.png' for reading
[file @ 00000206308fb880] Setting default whitelist 'file,crypto,data'
[AVIOContext @ 000002062a5ff380] Statistics: 2020668 bytes read, 0 seeks
[image2 @ 000002062518f3c0] Opening 'output/morphed_image_0149.png' for reading
[file @ 00000206308fc180] Setting default whitelist 'file,crypto,data'
[AVIOContext @ 000002062a5ff900] Statistics: 2025070 bytes read, 0 seeks
[image2 @ 000002062518f3c0] Opening 'output/morphed_image_0150.png' for reading
[file @ 00000206308fb7c0] Setting default whitelist 'file,crypto,data'
[AVIOContext @ 000002062a5fee00] Statistics: 2027702 bytes read, 0 seeks
[image2 @ 000002062518f3c0] Opening 'output/morphed_image_0151.png' for reading
[file @ 00000206308fad40] Setting default whitelist 'file,crypto,data'
[AVIOContext @ 000002062a5ff780] Statistics: 2027702 bytes read, 0 seeks
[image2 @ 000002062518f3c0] Opening 'output/morphed_image_0152.png' for reading
[file @ 00000206308fc180] Setting default whitelist 'file,crypto,data'
[AVIOContext @ 000002062a5feb40] Statistics: 2024836 bytes read, 0 seeks
[image2 @ 000002062518f3c0] Opening 'output/morphed_image_0153.png' for reading
[file @ 00000206308fc180] Setting default whitelist 'file,crypto,data'
[AVIOContext @ 000002062a5ff380] Statistics: 2021378 bytes read, 0 seeks
[image2 @ 000002062518f3c0] Opening 'output/morphed_image_0154.png' for reading
[file @ 00000206308fb640] Setting default whitelist 'file,crypto,data'
[AVIOContext @ 000002062a5feb40] Statistics: 2016818 bytes read, 0 seeks
[image2 @ 000002062518f3c0] Opening 'output/morphed_image_0155.png' for reading
[file @ 00000206308fc180] Setting default whitelist 'file,crypto,data'
[AVIOContext @ 000002062a5ff380] Statistics: 2013717 bytes read, 0 seeks
frame=  105 fps= 14 q=23.5 size=     512kB time=00:00:09.00 bitrate= 466.1kbits/s speed=1.22x    [image2 @ 000002062518f3c0] Opening 'output/morphed_image_0156.png' for reading
[file @ 00000206308fb640] Setting default whitelist 'file,crypto,data'
[AVIOContext @ 000002062a5ff780] Statistics: 2010027 bytes read, 0 seeks
[image2 @ 000002062518f3c0] Opening 'output/morphed_image_0157.png' for reading
[file @ 00000206308fc180] Setting default whitelist 'file,crypto,data'
[AVIOContext @ 000002062a5ff4c0] Statistics: 2007323 bytes read, 0 seeks
[image2 @ 000002062518f3c0] Opening 'output/morphed_image_0158.png' for reading
[file @ 00000206308fc400] Setting default whitelist 'file,crypto,data'
[AVIOContext @ 000002062a5ff640] Statistics: 2003217 bytes read, 0 seeks
[image2 @ 000002062518f3c0] Opening 'output/morphed_image_0159.png' for reading
[file @ 00000206308fc180] Setting default whitelist 'file,crypto,data'
[AVIOContext @ 000002062a5fee00] Statistics: 2000021 bytes read, 0 seeks
[image2 @ 000002062518f3c0] Opening 'output/morphed_image_0160.png' for reading
[file @ 00000206308fafc0] Setting default whitelist 'file,crypto,data'
[AVIOContext @ 000002062a5ff200] Statistics: 1996214 bytes read, 0 seeks
[image2 @ 000002062518f3c0] Opening 'output/morphed_image_0161.png' for reading
[file @ 00000206308fc180] Setting default whitelist 'file,crypto,data'
[AVIOContext @ 000002062a5fee00] Statistics: 1992712 bytes read, 0 seeks
[image2 @ 000002062518f3c0] Opening 'output/morphed_image_0162.png' for reading
[file @ 00000206308fb640] Setting default whitelist 'file,crypto,data'
[AVIOContext @ 000002062a5ff200] Statistics: 1989103 bytes read, 0 seeks
frame=  112 fps= 14 q=22.7 size=     512kB time=00:00:09.00 bitrate= 466.1kbits/s speed=1.11x    [image2 @ 000002062518f3c0] Opening 'output/morphed_image_0163.png' for reading
[file @ 00000206308fc180] Setting default whitelist 'file,crypto,data'
[AVIOContext @ 000002062a5feb40] Statistics: 1985862 bytes read, 0 seeks
[image2 @ 000002062518f3c0] Opening 'output/morphed_image_0164.png' for reading
[file @ 00000206308fb640] Setting default whitelist 'file,crypto,data'
[AVIOContext @ 000002062a5ff900] Statistics: 1982365 bytes read, 0 seeks
[image2 @ 000002062518f3c0] Opening 'output/morphed_image_0165.png' for reading
[file @ 00000206308fad40] Setting default whitelist 'file,crypto,data'
[AVIOContext @ 000002062a5ff0c0] Statistics: 1979261 bytes read, 0 seeks
[image2 @ 000002062518f3c0] Opening 'output/morphed_image_0166.png' for reading
[file @ 00000206308fad40] Setting default whitelist 'file,crypto,data'
[AVIOContext @ 000002062a5ff380] Statistics: 1975771 bytes read, 0 seeks
[image2 @ 000002062518f3c0] Opening 'output/morphed_image_0167.png' for reading
[file @ 00000206308fad40] Setting default whitelist 'file,crypto,data'
[AVIOContext @ 000002062a5fef40] Statistics: 1972489 bytes read, 0 seeks
[image2 @ 000002062518f3c0] Opening 'output/morphed_image_0168.png' for reading
[file @ 00000206308fafc0] Setting default whitelist 'file,crypto,data'
[AVIOContext @ 000002062a5ff780] Statistics: 1969420 bytes read, 0 seeks
[image2 @ 000002062518f3c0] Opening 'output/morphed_image_0169.png' for reading
[file @ 00000206308fad40] Setting default whitelist 'file,crypto,data'
[AVIOContext @ 000002062a5ff380] Statistics: 1966366 bytes read, 0 seeks
frame=  119 fps= 14 q=22.7 size=     768kB time=00:00:09.00 bitrate= 699.1kbits/s speed=1.03x    [image2 @ 000002062518f3c0] Opening 'output/morphed_image_0170.png' for reading
[file @ 00000206308fb640] Setting default whitelist 'file,crypto,data'
[AVIOContext @ 000002062a5ff380] Statistics: 1962983 bytes read, 0 seeks
[image2 @ 000002062518f3c0] Opening 'output/morphed_image_0171.png' for reading
[file @ 00000206308fc180] Setting default whitelist 'file,crypto,data'
[AVIOContext @ 000002062a5fee00] Statistics: 1959844 bytes read, 0 seeks
[image2 @ 000002062518f3c0] Opening 'output/morphed_image_0172.png' for reading
[file @ 00000206308fb640] Setting default whitelist 'file,crypto,data'
[AVIOContext @ 000002062a5ff200] Statistics: 1956778 bytes read, 0 seeks
[image2 @ 000002062518f3c0] Opening 'output/morphed_image_0173.png' for reading
[file @ 00000206308fb880] Setting default whitelist 'file,crypto,data'
[AVIOContext @ 000002062a5fee00] Statistics: 1953706 bytes read, 0 seeks
[image2 @ 000002062518f3c0] Opening 'output/morphed_image_0174.png' for reading
[file @ 00000206308fb640] Setting default whitelist 'file,crypto,data'
[AVIOContext @ 000002062a5ff900] Statistics: 1950635 bytes read, 0 seeks
[image2 @ 000002062518f3c0] Opening 'output/morphed_image_0175.png' for reading
[file @ 00000206308fc400] Setting default whitelist 'file,crypto,data'
[AVIOContext @ 000002062a5fef40] Statistics: 1947883 bytes read, 0 seeks
[image2 @ 000002062518f3c0] Opening 'output/morphed_image_0176.png' for reading
[file @ 00000206308fc180] Setting default whitelist 'file,crypto,data'
[AVIOContext @ 000002062a5ff0c0] Statistics: 1944615 bytes read, 0 seeks
frame=  126 fps= 14 q=22.8 size=     768kB time=00:00:09.00 bitrate= 699.1kbits/s speed=0.972x    [image2 @ 000002062518f3c0] Opening 'output/morphed_image_0177.png' for reading
[file @ 00000206308fc400] Setting default whitelist 'file,crypto,data'
[AVIOContext @ 000002062a5fee00] Statistics: 1941806 bytes read, 0 seeks
[image2 @ 000002062518f3c0] Opening 'output/morphed_image_0178.png' for reading
[file @ 00000206308fad40] Setting default whitelist 'file,crypto,data'
[AVIOContext @ 000002062a5ff200] Statistics: 1939072 bytes read, 0 seeks
[image2 @ 000002062518f3c0] Opening 'output/morphed_image_0179.png' for reading
[file @ 00000206308fad40] Setting default whitelist 'file,crypto,data'
[AVIOContext @ 000002062a5ff200] Statistics: 1936438 bytes read, 0 seeks
[image2 @ 000002062518f3c0] Opening 'output/morphed_image_0180.png' for reading
[file @ 00000206308fb880] Setting default whitelist 'file,crypto,data'
[AVIOContext @ 000002062a5ff380] Statistics: 1933400 bytes read, 0 seeks
[image2 @ 000002062518f3c0] Opening 'output/morphed_image_0181.png' for reading
[file @ 00000206308fb640] Setting default whitelist 'file,crypto,data'
[AVIOContext @ 000002062a5ff900] Statistics: 1930656 bytes read, 0 seeks
frame=  131 fps= 13 q=22.6 size=     768kB time=00:00:09.00 bitrate= 699.1kbits/s speed=0.921x    [image2 @ 000002062518f3c0] Opening 'output/morphed_image_0182.png' for reading
[file @ 00000206308fb7c0] Setting default whitelist 'file,crypto,data'
[AVIOContext @ 000002062a5fee00] Statistics: 1928129 bytes read, 0 seeks
[image2 @ 000002062518f3c0] Opening 'output/morphed_image_0183.png' for reading
[file @ 00000206308fad40] Setting default whitelist 'file,crypto,data'
[AVIOContext @ 000002062a5ff780] Statistics: 1925578 bytes read, 0 seeks
[image2 @ 000002062518f3c0] Opening 'output/morphed_image_0184.png' for reading
[file @ 00000206308fad40] Setting default whitelist 'file,crypto,data'
[AVIOContext @ 000002062a5ff4c0] Statistics: 1922956 bytes read, 0 seeks
[image2 @ 000002062518f3c0] Opening 'output/morphed_image_0185.png' for reading
[file @ 00000206308fc180] Setting default whitelist 'file,crypto,data'
[AVIOContext @ 000002062a5fef40] Statistics: 1920311 bytes read, 0 seeks
[image2 @ 000002062518f3c0] Opening 'output/morphed_image_0186.png' for reading
[file @ 00000206308fafc0] Setting default whitelist 'file,crypto,data'
[AVIOContext @ 000002062a5fee00] Statistics: 1917756 bytes read, 0 seeks
[image2 @ 000002062518f3c0] Opening 'output/morphed_image_0187.png' for reading
[file @ 00000206308fc180] Setting default whitelist 'file,crypto,data'
[AVIOContext @ 000002062a5ff780] Statistics: 1915347 bytes read, 0 seeks
[image2 @ 000002062518f3c0] Opening 'output/morphed_image_0188.png' for reading
[file @ 00000206308fad40] Setting default whitelist 'file,crypto,data'
[AVIOContext @ 000002062a5ff0c0] Statistics: 1912918 bytes read, 0 seeks
[image2 @ 000002062518f3c0] Opening 'output/morphed_image_0189.png' for reading
[file @ 00000206308fad40] Setting default whitelist 'file,crypto,data'
[AVIOContext @ 000002062a5ff200] Statistics: 1910292 bytes read, 0 seeks
frame=  139 fps= 13 q=22.7 size=     768kB time=00:00:09.00 bitrate= 699.1kbits/s speed=0.866x    [image2 @ 000002062518f3c0] Opening 'output/morphed_image_0190.png' for reading
[file @ 00000206308fc180] Setting default whitelist 'file,crypto,data'
[AVIOContext @ 000002062a5ff380] Statistics: 1907995 bytes read, 0 seeks
[image2 @ 000002062518f3c0] Opening 'output/morphed_image_0191.png' for reading
[file @ 00000206308fc180] Setting default whitelist 'file,crypto,data'
[AVIOContext @ 000002062a5ff780] Statistics: 1905901 bytes read, 0 seeks
[image2 @ 000002062518f3c0] Opening 'output/morphed_image_0192.png' for reading
[file @ 00000206308fad40] Setting default whitelist 'file,crypto,data'
[AVIOContext @ 000002062a5fec80] Statistics: 1903663 bytes read, 0 seeks
[image2 @ 000002062518f3c0] Opening 'output/morphed_image_0193.png' for reading
[file @ 00000206308fb640] Setting default whitelist 'file,crypto,data'
[AVIOContext @ 000002062a5feb40] Statistics: 1901169 bytes read, 0 seeks
[image2 @ 000002062518f3c0] Opening 'output/morphed_image_0194.png' for reading
[file @ 00000206308fc180] Setting default whitelist 'file,crypto,data'
[AVIOContext @ 000002062a5fec80] Statistics: 1899371 bytes read, 0 seeks
[image2 @ 000002062518f3c0] Opening 'output/morphed_image_0195.png' for reading
[file @ 00000206308fb640] Setting default whitelist 'file,crypto,data'
[AVIOContext @ 000002062a5ff900] Statistics: 1897054 bytes read, 0 seeks
[image2 @ 000002062518f3c0] Opening 'output/morphed_image_0196.png' for reading
[file @ 00000206308fc180] Setting default whitelist 'file,crypto,data'
[AVIOContext @ 000002062a5ff640] Statistics: 1894849 bytes read, 0 seeks
frame=  146 fps= 13 q=23.1 size=     768kB time=00:00:09.00 bitrate= 699.1kbits/s speed=0.823x    [image2 @ 000002062518f3c0] Opening 'output/morphed_image_0197.png' for reading
[file @ 00000206308fc240] Setting default whitelist 'file,crypto,data'
[AVIOContext @ 000002062a5ff4c0] Statistics: 1892966 bytes read, 0 seeks
[image2 @ 000002062518f3c0] Opening 'output/morphed_image_0198.png' for reading
[file @ 00000206308fc400] Setting default whitelist 'file,crypto,data'
[AVIOContext @ 000002062a5ff0c0] Statistics: 1890948 bytes read, 0 seeks
[image2 @ 000002062518f3c0] Opening 'output/morphed_image_0199.png' for reading
[file @ 00000206308fb640] Setting default whitelist 'file,crypto,data'
[AVIOContext @ 000002062a5ff0c0] Statistics: 1888920 bytes read, 0 seeks
[image2 @ 000002062518f3c0] Opening 'output/morphed_image_0200.png' for reading
[file @ 00000206308fb640] Setting default whitelist 'file,crypto,data'
[AVIOContext @ 000002062a5ff4c0] Statistics: 1887043 bytes read, 0 seeks
[image2 @ 000002062518f3c0] Opening 'output/morphed_image_0201.png' for reading
[file @ 00000206308fad40] Setting default whitelist 'file,crypto,data'
[AVIOContext @ 000002062a5ff4c0] Statistics: 1885119 bytes read, 0 seeks
[image2 @ 000002062518f3c0] Opening 'output/morphed_image_0202.png' for reading
[file @ 00000206308fc180] Setting default whitelist 'file,crypto,data'
[AVIOContext @ 000002062a5ff640] Statistics: 1883591 bytes read, 0 seeks
[image2 @ 000002062518f3c0] Opening 'output/morphed_image_0203.png' for reading
[file @ 00000206308fc180] Setting default whitelist 'file,crypto,data'
[AVIOContext @ 000002062a5ff780] Statistics: 1882013 bytes read, 0 seeks
[image2 @ 000002062518f3c0] Opening 'output/morphed_image_0204.png' for reading
[file @ 00000206308fb640] Setting default whitelist 'file,crypto,data'
[AVIOContext @ 000002062a5ff640] Statistics: 1880271 bytes read, 0 seeks
[image2 @ 000002062518f3c0] Opening 'output/morphed_image_0205.png' for reading
[file @ 00000206308fad40] Setting default whitelist 'file,crypto,data'
[AVIOContext @ 000002062a5ff200] Statistics: 1878698 bytes read, 0 seeks
[image2 @ 000002062518f3c0] Opening 'output/morphed_image_0206.png' for reading
[file @ 00000206308fb640] Setting default whitelist 'file,crypto,data'
[AVIOContext @ 000002062a5fee00] Statistics: 1877012 bytes read, 0 seeks
frame=  156 fps= 14 q=23.9 size=    1024kB time=00:00:09.00 bitrate= 932.1kbits/s speed=0.783x    [image2 @ 000002062518f3c0] Opening 'output/morphed_image_0207.png' for reading
[file @ 00000206308fc180] Setting default whitelist 'file,crypto,data'
[AVIOContext @ 000002062a5ff200] Statistics: 1875817 bytes read, 0 seeks
[image2 @ 000002062518f3c0] Opening 'output/morphed_image_0208.png' for reading
[file @ 00000206308fc180] Setting default whitelist 'file,crypto,data'
[AVIOContext @ 000002062a5ff640] Statistics: 1874124 bytes read, 0 seeks
[image2 @ 000002062518f3c0] Opening 'output/morphed_image_0209.png' for reading
[file @ 00000206308fc180] Setting default whitelist 'file,crypto,data'
[AVIOContext @ 000002062a5ff640] Statistics: 1872709 bytes read, 0 seeks
[image2 @ 000002062518f3c0] Opening 'output/morphed_image_0210.png' for reading
[file @ 00000206308fad40] Setting default whitelist 'file,crypto,data'
[AVIOContext @ 000002062a5fec80] Statistics: 1871530 bytes read, 0 seeks
[image2 @ 000002062518f3c0] Opening 'output/morphed_image_0211.png' for reading
[file @ 00000206308fc180] Setting default whitelist 'file,crypto,data'
[AVIOContext @ 000002062a5fec80] Statistics: 1870071 bytes read, 0 seeks
[image2 @ 000002062518f3c0] Opening 'output/morphed_image_0212.png' for reading
[file @ 00000206308fb640] Setting default whitelist 'file,crypto,data'
[AVIOContext @ 000002062a5ff0c0] Statistics: 1868882 bytes read, 0 seeks
frame=  162 fps= 13 q=23.8 size=    1024kB time=00:00:09.00 bitrate= 932.1kbits/s speed=0.749x    [image2 @ 000002062518f3c0] Opening 'output/morphed_image_0213.png' for reading
[file @ 00000206308fb640] Setting default whitelist 'file,crypto,data'
[AVIOContext @ 000002062a5fec80] Statistics: 1867789 bytes read, 0 seeks
[image2 @ 000002062518f3c0] Opening 'output/morphed_image_0214.png' for reading
[file @ 00000206308fc180] Setting default whitelist 'file,crypto,data'
[AVIOContext @ 000002062a5ff380] Statistics: 1866747 bytes read, 0 seeks
[image2 @ 000002062518f3c0] Opening 'output/morphed_image_0215.png' for reading
[file @ 00000206308fc180] Setting default whitelist 'file,crypto,data'
[AVIOContext @ 000002062a5ff640] Statistics: 1865521 bytes read, 0 seeks
[image2 @ 000002062518f3c0] Opening 'output/morphed_image_0216.png' for reading
[file @ 00000206308fb640] Setting default whitelist 'file,crypto,data'
[AVIOContext @ 000002062a5ff780] Statistics: 1864586 bytes read, 0 seeks
[image2 @ 000002062518f3c0] Opening 'output/morphed_image_0217.png' for reading
[file @ 00000206308fb640] Setting default whitelist 'file,crypto,data'
[AVIOContext @ 000002062a5feb40] Statistics: 1863840 bytes read, 0 seeks
[image2 @ 000002062518f3c0] Opening 'output/morphed_image_0218.png' for reading
[file @ 00000206308fae00] Setting default whitelist 'file,crypto,data'
[AVIOContext @ 000002062a5feb40] Statistics: 1862707 bytes read, 0 seeks
frame=  168 fps= 13 q=23.7 size=    1024kB time=00:00:09.00 bitrate= 932.1kbits/s speed=0.715x    [image2 @ 000002062518f3c0] Opening 'output/morphed_image_0219.png' for reading
[file @ 00000206308fb7c0] Setting default whitelist 'file,crypto,data'
[AVIOContext @ 000002062a5fee00] Statistics: 1862105 bytes read, 0 seeks
[image2 @ 000002062518f3c0] Opening 'output/morphed_image_0220.png' for reading
[file @ 00000206308fc180] Setting default whitelist 'file,crypto,data'
[AVIOContext @ 000002062a5ff780] Statistics: 1861388 bytes read, 0 seeks
[image2 @ 000002062518f3c0] Opening 'output/morphed_image_0221.png' for reading
[file @ 00000206308fae00] Setting default whitelist 'file,crypto,data'
[AVIOContext @ 000002062a5fec80] Statistics: 1860694 bytes read, 0 seeks
[image2 @ 000002062518f3c0] Opening 'output/morphed_image_0222.png' for reading
[file @ 00000206308fb640] Setting default whitelist 'file,crypto,data'
[AVIOContext @ 000002062a5ff900] Statistics: 1859793 bytes read, 0 seeks
[image2 @ 000002062518f3c0] Opening 'output/morphed_image_0223.png' for reading
[file @ 00000206308fad40] Setting default whitelist 'file,crypto,data'
[AVIOContext @ 000002062a5ff780] Statistics: 1859214 bytes read, 0 seeks
frame=  173 fps= 13 q=23.7 size=    1024kB time=00:00:09.00 bitrate= 932.1kbits/s speed=0.687x    [image2 @ 000002062518f3c0] Opening 'output/morphed_image_0224.png' for reading
[file @ 00000206308fb700] Setting default whitelist 'file,crypto,data'
[AVIOContext @ 000002062a5fef40] Statistics: 1858822 bytes read, 0 seeks
[image2 @ 000002062518f3c0] Opening 'output/morphed_image_0225.png' for reading
[file @ 00000206308fad40] Setting default whitelist 'file,crypto,data'
[AVIOContext @ 000002062a5feb40] Statistics: 1858395 bytes read, 0 seeks
[image2 @ 000002062518f3c0] Opening 'output/morphed_image_0226.png' for reading
[file @ 00000206308fb640] Setting default whitelist 'file,crypto,data'
[AVIOContext @ 000002062a5ff640] Statistics: 1848727 bytes read, 0 seeks
[image2 @ 000002062518f3c0] Opening 'output/morphed_image_0227.png' for reading
[file @ 00000206308fad40] Setting default whitelist 'file,crypto,data'
[AVIOContext @ 000002062a5fef40] Statistics: 1856911 bytes read, 0 seeks
[image2 @ 000002062518f3c0] Opening 'output/morphed_image_0228.png' for reading
[file @ 00000206308fad40] Setting default whitelist 'file,crypto,data'
[AVIOContext @ 000002062a5ff4c0] Statistics: 1857102 bytes read, 0 seeks
[image2 @ 000002062518f3c0] Opening 'output/morphed_image_0229.png' for reading
[file @ 00000206308fc340] Setting default whitelist 'file,crypto,data'
[AVIOContext @ 000002062a5ff640] Statistics: 1857087 bytes read, 0 seeks
frame=  179 fps= 13 q=23.7 size=    1024kB time=00:00:09.00 bitrate= 932.1kbits/s speed=0.655x    [image2 @ 000002062518f3c0] Opening 'output/morphed_image_0230.png' for reading
[file @ 00000206308fb700] Setting default whitelist 'file,crypto,data'
[AVIOContext @ 000002062a5fef40] Statistics: 1856878 bytes read, 0 seeks
[image2 @ 000002062518f3c0] Opening 'output/morphed_image_0231.png' for reading
[file @ 00000206308fb7c0] Setting default whitelist 'file,crypto,data'
[AVIOContext @ 000002062a5feb40] Statistics: 1856580 bytes read, 0 seeks
[image2 @ 000002062518f3c0] Opening 'output/morphed_image_0232.png' for reading
[file @ 00000206308fb640] Setting default whitelist 'file,crypto,data'
[AVIOContext @ 000002062a5feb40] Statistics: 1856654 bytes read, 0 seeks
[image2 @ 000002062518f3c0] Opening 'output/morphed_image_0233.png' for reading
[file @ 00000206308fb640] Setting default whitelist 'file,crypto,data'
[AVIOContext @ 000002062a5fec80] Statistics: 1856674 bytes read, 0 seeks
[image2 @ 000002062518f3c0] Opening 'output/morphed_image_0234.png' for reading
[file @ 00000206308fad40] Setting default whitelist 'file,crypto,data'
[AVIOContext @ 000002062a5ff380] Statistics: 1856771 bytes read, 0 seeks
[image2 @ 000002062518f3c0] Opening 'output/morphed_image_0235.png' for reading
[file @ 00000206308fc180] Setting default whitelist 'file,crypto,data'
[AVIOContext @ 000002062a5ff780] Statistics: 1856820 bytes read, 0 seeks
[image2 @ 000002062518f3c0] Opening 'output/morphed_image_0236.png' for reading
[file @ 00000206308fb640] Setting default whitelist 'file,crypto,data'
[AVIOContext @ 000002062a5ff780] Statistics: 1857023 bytes read, 0 seeks
frame=  186 fps= 13 q=23.6 size=    1024kB time=00:00:09.00 bitrate= 932.1kbits/s speed=0.629x    [image2 @ 000002062518f3c0] Opening 'output/morphed_image_0237.png' for reading
[file @ 00000206308fb7c0] Setting default whitelist 'file,crypto,data'
[AVIOContext @ 000002062a5ff900] Statistics: 1857418 bytes read, 0 seeks
[image2 @ 000002062518f3c0] Opening 'output/morphed_image_0238.png' for reading
[file @ 00000206308fad40] Setting default whitelist 'file,crypto,data'
[AVIOContext @ 000002062a5fef40] Statistics: 1857671 bytes read, 0 seeks
[image2 @ 000002062518f3c0] Opening 'output/morphed_image_0239.png' for reading
[file @ 00000206308fad40] Setting default whitelist 'file,crypto,data'
[AVIOContext @ 000002062a5fec80] Statistics: 1858089 bytes read, 0 seeks
[image2 @ 000002062518f3c0] Opening 'output/morphed_image_0240.png' for reading
[file @ 00000206308fad40] Setting default whitelist 'file,crypto,data'
[AVIOContext @ 000002062a5ff380] Statistics: 1858462 bytes read, 0 seeks
[image2 @ 000002062518f3c0] Opening 'output/morphed_image_0241.png' for reading
[file @ 00000206308fc180] Setting default whitelist 'file,crypto,data'
[AVIOContext @ 000002062a5ff780] Statistics: 1858669 bytes read, 0 seeks
frame=  191 fps= 13 q=23.5 size=    1280kB time=00:00:09.00 bitrate=1165.1kbits/s speed=0.607x    [image2 @ 000002062518f3c0] Opening 'output/morphed_image_0242.png' for reading
[file @ 00000206308fb640] Setting default whitelist 'file,crypto,data'
[AVIOContext @ 000002062a5ff780] Statistics: 1859459 bytes read, 0 seeks
[image2 @ 000002062518f3c0] Opening 'output/morphed_image_0243.png' for reading
[file @ 00000206308fb7c0] Setting default whitelist 'file,crypto,data'
[AVIOContext @ 000002062a5ff380] Statistics: 1860189 bytes read, 0 seeks
[image2 @ 000002062518f3c0] Opening 'output/morphed_image_0244.png' for reading
[file @ 00000206308fb880] Setting default whitelist 'file,crypto,data'
[AVIOContext @ 000002062a5ff640] Statistics: 1860720 bytes read, 0 seeks
[image2 @ 000002062518f3c0] Opening 'output/morphed_image_0245.png' for reading
[file @ 00000206308fb700] Setting default whitelist 'file,crypto,data'
[AVIOContext @ 000002062a5ff640] Statistics: 1861495 bytes read, 0 seeks
[image2 @ 000002062518f3c0] Opening 'output/morphed_image_0246.png' for reading
[file @ 00000206308fb640] Setting default whitelist 'file,crypto,data'
[AVIOContext @ 000002062a5feb40] Statistics: 1862317 bytes read, 0 seeks
[image2 @ 000002062518f3c0] Opening 'output/morphed_image_0247.png' for reading
[file @ 00000206308fc340] Setting default whitelist 'file,crypto,data'
[AVIOContext @ 000002062a5ff640] Statistics: 1863073 bytes read, 0 seeks
frame=  197 fps= 13 q=23.1 size=    1280kB time=00:00:09.00 bitrate=1165.1kbits/s speed=0.585x    [image2 @ 000002062518f3c0] Opening 'output/morphed_image_0248.png' for reading
[file @ 00000206308fad40] Setting default whitelist 'file,crypto,data'
[AVIOContext @ 000002062a5ff0c0] Statistics: 1864061 bytes read, 0 seeks
[image2 @ 000002062518f3c0] Opening 'output/morphed_image_0249.png' for reading
[file @ 00000206308fc180] Setting default whitelist 'file,crypto,data'
[AVIOContext @ 000002062a5ff780] Statistics: 1865117 bytes read, 0 seeks
[image2 @ 000002062518f3c0] Opening 'output/morphed_image_0250.png' for reading
[file @ 00000206308fc180] Setting default whitelist 'file,crypto,data'
[AVIOContext @ 000002062a5ff4c0] Statistics: 1865784 bytes read, 0 seeks
[image2 @ 000002062518f3c0] Opening 'output/morphed_image_0251.png' for reading
[file @ 00000206308fad40] Setting default whitelist 'file,crypto,data'
[AVIOContext @ 000002062a5fee00] Statistics: 1866871 bytes read, 0 seeks
[image2 @ 000002062518f3c0] Opening 'output/morphed_image_0252.png' for reading
[file @ 00000206308fc240] Setting default whitelist 'file,crypto,data'
[AVIOContext @ 000002062a5ff0c0] Statistics: 1868256 bytes read, 0 seeks
[image2 @ 000002062518f3c0] Opening 'output/morphed_image_0253.png' for reading
[file @ 00000206308fc180] Setting default whitelist 'file,crypto,data'
[AVIOContext @ 000002062a5ff0c0] Statistics: 1869166 bytes read, 0 seeks
frame=  203 fps= 13 q=23.4 size=    1280kB time=00:00:09.00 bitrate=1165.1kbits/s speed=0.565x    [image2 @ 000002062518f3c0] Opening 'output/morphed_image_0254.png' for reading
[file @ 00000206308fc180] Setting default whitelist 'file,crypto,data'
[AVIOContext @ 000002062a5ff200] Statistics: 1870559 bytes read, 0 seeks
[image2 @ 000002062518f3c0] Opening 'output/morphed_image_0255.png' for reading
[file @ 00000206308fb640] Setting default whitelist 'file,crypto,data'
[AVIOContext @ 000002062a5feb40] Statistics: 1872026 bytes read, 0 seeks
[image2 @ 000002062518f3c0] Opening 'output/morphed_image_0256.png' for reading
[file @ 00000206308fb640] Setting default whitelist 'file,crypto,data'
[AVIOContext @ 000002062a5ff780] Statistics: 1873326 bytes read, 0 seeks
[image2 @ 000002062518f3c0] Opening 'output/morphed_image_0257.png' for reading
[file @ 00000206308fb640] Setting default whitelist 'file,crypto,data'
[AVIOContext @ 000002062a5fec80] Statistics: 1874716 bytes read, 0 seeks
[image2 @ 000002062518f3c0] Opening 'output/morphed_image_0258.png' for reading
[file @ 00000206308fb640] Setting default whitelist 'file,crypto,data'
[AVIOContext @ 000002062a5ff0c0] Statistics: 1876294 bytes read, 0 seeks
[image2 @ 000002062518f3c0] Opening 'output/morphed_image_0259.png' for reading
[file @ 00000206308fb640] Setting default whitelist 'file,crypto,data'
[AVIOContext @ 000002062a5ff780] Statistics: 1877613 bytes read, 0 seeks
[image2 @ 000002062518f3c0] Opening 'output/morphed_image_0260.png' for reading
[file @ 00000206308fb640] Setting default whitelist 'file,crypto,data'
[AVIOContext @ 000002062a5ff780] Statistics: 1879380 bytes read, 0 seeks
[image2 @ 000002062518f3c0] Opening 'output/morphed_image_0261.png' for reading
[file @ 00000206308fb640] Setting default whitelist 'file,crypto,data'
[AVIOContext @ 000002062a5ff4c0] Statistics: 1880968 bytes read, 0 seeks
frame=  211 fps= 13 q=23.2 size=    1280kB time=00:00:09.00 bitrate=1165.1kbits/s speed=0.543x    [image2 @ 000002062518f3c0] Opening 'output/morphed_image_0262.png' for reading
[file @ 00000206308fad40] Setting default whitelist 'file,crypto,data'
[AVIOContext @ 000002062a5ff200] Statistics: 1882874 bytes read, 0 seeks
[image2 @ 000002062518f3c0] Opening 'output/morphed_image_0263.png' for reading
[file @ 00000206308fb640] Setting default whitelist 'file,crypto,data'
[AVIOContext @ 000002062a5feb40] Statistics: 1884539 bytes read, 0 seeks
[image2 @ 000002062518f3c0] Opening 'output/morphed_image_0264.png' for reading
[file @ 00000206308fc180] Setting default whitelist 'file,crypto,data'
[AVIOContext @ 000002062a5ff4c0] Statistics: 1886398 bytes read, 0 seeks
[image2 @ 000002062518f3c0] Opening 'output/morphed_image_0265.png' for reading
[file @ 00000206308fad40] Setting default whitelist 'file,crypto,data'
[AVIOContext @ 000002062a5fee00] Statistics: 1888503 bytes read, 0 seeks
[image2 @ 000002062518f3c0] Opening 'output/morphed_image_0266.png' for reading
[file @ 00000206308fad40] Setting default whitelist 'file,crypto,data'
[AVIOContext @ 000002062a5ff900] Statistics: 1890218 bytes read, 0 seeks
[image2 @ 000002062518f3c0] Opening 'output/morphed_image_0267.png' for reading
[file @ 00000206308fc180] Setting default whitelist 'file,crypto,data'
[AVIOContext @ 000002062a5fee00] Statistics: 1892394 bytes read, 0 seeks
[image2 @ 000002062518f3c0] Opening 'output/morphed_image_0268.png' for reading
[file @ 00000206308fb640] Setting default whitelist 'file,crypto,data'
[AVIOContext @ 000002062a5ff0c0] Statistics: 1894456 bytes read, 0 seeks
[image2 @ 000002062518f3c0] Opening 'output/morphed_image_0269.png' for reading
[file @ 00000206308fc180] Setting default whitelist 'file,crypto,data'
[AVIOContext @ 000002062a5ff640] Statistics: 1896614 bytes read, 0 seeks
frame=  219 fps= 13 q=23.1 size=    1280kB time=00:00:09.00 bitrate=1165.1kbits/s speed=0.525x    [image2 @ 000002062518f3c0] Opening 'output/morphed_image_0270.png' for reading
[file @ 00000206308fc180] Setting default whitelist 'file,crypto,data'
[AVIOContext @ 000002062a5ff900] Statistics: 1898822 bytes read, 0 seeks
[image2 @ 000002062518f3c0] Opening 'output/morphed_image_0271.png' for reading
[file @ 00000206308fad40] Setting default whitelist 'file,crypto,data'
[AVIOContext @ 000002062a5fee00] Statistics: 1900914 bytes read, 0 seeks
[image2 @ 000002062518f3c0] Opening 'output/morphed_image_0272.png' for reading
[file @ 00000206308fb640] Setting default whitelist 'file,crypto,data'
[AVIOContext @ 000002062a5ff200] Statistics: 1903143 bytes read, 0 seeks
[image2 @ 000002062518f3c0] Opening 'output/morphed_image_0273.png' for reading
[file @ 00000206308fc340] Setting default whitelist 'file,crypto,data'
[AVIOContext @ 000002062a5fec80] Statistics: 1905596 bytes read, 0 seeks
[image2 @ 000002062518f3c0] Opening 'output/morphed_image_0274.png' for reading
[file @ 00000206308fc180] Setting default whitelist 'file,crypto,data'
[AVIOContext @ 000002062a5ff780] Statistics: 1908062 bytes read, 0 seeks
[image2 @ 000002062518f3c0] Opening 'output/morphed_image_0275.png' for reading
[file @ 00000206308fad40] Setting default whitelist 'file,crypto,data'
[AVIOContext @ 000002062a5ff380] Statistics: 1910401 bytes read, 0 seeks
[image2 @ 000002062518f3c0] Opening 'output/morphed_image_0276.png' for reading
[file @ 00000206308fad40] Setting default whitelist 'file,crypto,data'
[AVIOContext @ 000002062a5ff4c0] Statistics: 1912900 bytes read, 0 seeks
[image2 @ 000002062518f3c0] Opening 'output/morphed_image_0277.png' for reading
[file @ 00000206308fad40] Setting default whitelist 'file,crypto,data'
[AVIOContext @ 000002062a5ff380] Statistics: 1915662 bytes read, 0 seeks
[image2 @ 000002062518f3c0] Opening 'output/morphed_image_0278.png' for reading
[file @ 00000206308fae00] Setting default whitelist 'file,crypto,data'
[AVIOContext @ 000002062a5ff200] Statistics: 1918041 bytes read, 0 seeks
[image2 @ 000002062518f3c0] Opening 'output/morphed_image_0279.png' for reading
[file @ 00000206308fad40] Setting default whitelist 'file,crypto,data'
[AVIOContext @ 000002062a5fee00] Statistics: 1920768 bytes read, 0 seeks
frame=  229 fps= 13 q=23.3 size=    1536kB time=00:00:09.00 bitrate=1398.1kbits/s speed=0.505x    [image2 @ 000002062518f3c0] Opening 'output/morphed_image_0280.png' for reading
[file @ 00000206308fad40] Setting default whitelist 'file,crypto,data'
[AVIOContext @ 000002062a5ff0c0] Statistics: 1923519 bytes read, 0 seeks
[image2 @ 000002062518f3c0] Opening 'output/morphed_image_0281.png' for reading
[file @ 00000206308fad40] Setting default whitelist 'file,crypto,data'
[AVIOContext @ 000002062a5ff640] Statistics: 1926264 bytes read, 0 seeks
[image2 @ 000002062518f3c0] Opening 'output/morphed_image_0282.png' for reading
[file @ 00000206308fad40] Setting default whitelist 'file,crypto,data'
[AVIOContext @ 000002062a5feb40] Statistics: 1928998 bytes read, 0 seeks
[image2 @ 000002062518f3c0] Opening 'output/morphed_image_0283.png' for reading
[file @ 00000206308fc180] Setting default whitelist 'file,crypto,data'
[AVIOContext @ 000002062a5ff640] Statistics: 1932101 bytes read, 0 seeks
[image2 @ 000002062518f3c0] Opening 'output/morphed_image_0284.png' for reading
[file @ 00000206308fad40] Setting default whitelist 'file,crypto,data'
[AVIOContext @ 000002062a5ff380] Statistics: 1934881 bytes read, 0 seeks
[image2 @ 000002062518f3c0] Opening 'output/morphed_image_0285.png' for reading
[file @ 00000206308fad40] Setting default whitelist 'file,crypto,data'
[AVIOContext @ 000002062a5ff900] Statistics: 1937893 bytes read, 0 seeks
[image2 @ 000002062518f3c0] Opening 'output/morphed_image_0286.png' for reading
[file @ 00000206308fb640] Setting default whitelist 'file,crypto,data'
[AVIOContext @ 000002062a5ff640] Statistics: 1941051 bytes read, 0 seeks
[image2 @ 000002062518f3c0] Opening 'output/morphed_image_0287.png' for reading
[file @ 00000206308fad40] Setting default whitelist 'file,crypto,data'
[AVIOContext @ 000002062a5ff640] Statistics: 1943975 bytes read, 0 seeks
[image2 @ 000002062518f3c0] Opening 'output/morphed_image_0288.png' for reading
[file @ 00000206308fad40] Setting default whitelist 'file,crypto,data'
[AVIOContext @ 000002062a5ff0c0] Statistics: 1947131 bytes read, 0 seeks
[sist#2:0/subrip @ 00000206251c70c0] Decoder thread received EOF packet
[sist#2:0/subrip @ 00000206251c70c0] Decoder returned EOF, finishing
[sist#2:0/subrip @ 00000206251c70c0] Terminating decoder thread
[image2 @ 000002062518f3c0] Opening 'output/morphed_image_0289.png' for reading
[file @ 00000206308fafc0] Setting default whitelist 'file,crypto,data'
[AVIOContext @ 000002062a5ff900] Statistics: 1950465 bytes read, 0 seeks
[image2 @ 000002062518f3c0] Opening 'output/morphed_image_0290.png' for reading
[file @ 00000206308fc400] Setting default whitelist 'file,crypto,data'
[AVIOContext @ 000002062a5feb40] Statistics: 1953673 bytes read, 0 seeks
[image2 @ 000002062518f3c0] Opening 'output/morphed_image_0291.png' for reading
[file @ 00000206308fc400] Setting default whitelist 'file,crypto,data'
[AVIOContext @ 000002062a5ff900] Statistics: 1956995 bytes read, 0 seeks
frame=  241 fps= 13 q=25.4 size=    1536kB time=00:00:09.14 bitrate=1375.8kbits/s speed=0.496x    [image2 @ 000002062518f3c0] Opening 'output/morphed_image_0292.png' for reading
[file @ 00000206308fc180] Setting default whitelist 'file,crypto,data'
[AVIOContext @ 000002062a5ff780] Statistics: 1960406 bytes read, 0 seeks
[image2 @ 000002062518f3c0] Opening 'output/morphed_image_0293.png' for reading
[file @ 00000206308fad40] Setting default whitelist 'file,crypto,data'
[AVIOContext @ 000002062a5ff780] Statistics: 1963946 bytes read, 0 seeks
[image2 @ 000002062518f3c0] Opening 'output/morphed_image_0294.png' for reading
[file @ 00000206308fc400] Setting default whitelist 'file,crypto,data'
[AVIOContext @ 000002062a5ff380] Statistics: 1967560 bytes read, 0 seeks
[image2 @ 000002062518f3c0] Opening 'output/morphed_image_0295.png' for reading
[file @ 00000206308fb640] Setting default whitelist 'file,crypto,data'
[AVIOContext @ 000002062a5ff0c0] Statistics: 1971218 bytes read, 0 seeks
[image2 @ 000002062518f3c0] Opening 'output/morphed_image_0296.png' for reading
[file @ 00000206308fb700] Setting default whitelist 'file,crypto,data'
[AVIOContext @ 000002062a5ff640] Statistics: 1974312 bytes read, 0 seeks
[image2 @ 000002062518f3c0] Opening 'output/morphed_image_0297.png' for reading
[file @ 00000206308fb640] Setting default whitelist 'file,crypto,data'
[AVIOContext @ 000002062a5ff640] Statistics: 1977344 bytes read, 0 seeks
frame=  247 fps= 13 q=27.5 size=    1536kB time=00:00:09.33 bitrate=1347.5kbits/s speed=0.492x    [image2 @ 000002062518f3c0] Opening 'output/morphed_image_0298.png' for reading
[file @ 00000206308fc180] Setting default whitelist 'file,crypto,data'
[AVIOContext @ 000002062a5ff900] Statistics: 1980229 bytes read, 0 seeks
[image2 @ 000002062518f3c0] Opening 'output/morphed_image_0299.png' for reading
[file @ 00000206308fad40] Setting default whitelist 'file,crypto,data'
[AVIOContext @ 000002062a5ff900] Statistics: 1984624 bytes read, 0 seeks
[image2 @ 000002062518f3c0] Opening 'output/morphed_image_0300.png' for reading
[file @ 00000206308fb640] Setting default whitelist 'file,crypto,data'
[AVIOContext @ 000002062a5ff380] Statistics: 1988285 bytes read, 0 seeks
frame=  250 fps= 13 q=21.5 size=    1536kB time=00:00:09.43 bitrate=1333.8kbits/s speed=0.48x    [image2 @ 000002062518f3c0] Opening 'output/morphed_image_0301.png' for reading
[file @ 00000206308fb700] Setting default whitelist 'file,crypto,data'
[AVIOContext @ 000002062a5fec80] Statistics: 1991211 bytes read, 0 seeks
[in#0/image2 @ 000002062518f240] EOF while reading input
[in#0/image2 @ 000002062518f240] Terminating demuxer thread
[vist#0:0/png @ 0000020625196680] Decoder thread received EOF packet
[vist#0:0/png @ 0000020625196680] Decoder returned EOF, finishing
[vist#0:0/png @ 0000020625196680] Terminating decoder thread
frame=  268 fps= 13 q=23.8 size=    1792kB time=00:00:09.79 bitrate=1498.9kbits/s speed=0.475x    [out_0_0 @ 00000206251ef500] EOF on sink link out_0_0:default.
[mp3 @ 00000206251b1380] demuxer injecting skip 0 / discard 47
[in#1/mp3 @ 000002062518fe40] EOF while reading input
[in#1/mp3 @ 000002062518fe40] Terminating demuxer thread
No more output streams to write to, finishing.
[out#0/mp4 @ 00000206251aaa40] All streams finished
[out#0/mp4 @ 00000206251aaa40] Terminating muxer thread
[AVIOContext @ 00000206251f1640] Statistics: 2143397 bytes written, 2 seeks, 12 writeouts
[out#0/mp4 @ 00000206251aaa40] Output file #0 (output/video_audio_srt.mp4):
[out#0/mp4 @ 00000206251aaa40]   Output stream #0:0 (video): 302 frames encoded; 302 packets muxed (2080188 bytes); 
[out#0/mp4 @ 00000206251aaa40]   Output stream #0:1 (audio): 524 packets muxed (50304 bytes); 
[out#0/mp4 @ 00000206251aaa40]   Output stream #0:2 (subtitle): 3 frames encoded; 3 packets muxed (166 bytes); 
[out#0/mp4 @ 00000206251aaa40]   Total: 829 packets (2130658 bytes) muxed
[out#0/mp4 @ 00000206251aaa40] video:2031kB audio:49kB subtitle:0kB other streams:0kB global headers:2kB muxing overhead: 0.597703%
frame=  302 fps= 14 q=32.7 Lsize=    2093kB time=00:00:12.50 bitrate=1371.1kbits/s speed=0.565x    
[in#0/image2 @ 000002062518f240] Input file #0 (output/morphed_image_%04d.png):
[in#0/image2 @ 000002062518f240]   Input stream #0:0 (video): 302 packets read (543207674 bytes); 302 frames decoded; 0 decode errors; 
[in#0/image2 @ 000002062518f240]   Total: 302 packets (543207674 bytes) demuxed
[in#1/mp3 @ 000002062518fe40] Input file #1 (output/merged_audio.mp3):
[in#1/mp3 @ 000002062518fe40]   Input stream #1:0 (audio): 524 packets read (50304 bytes); 
[in#1/mp3 @ 000002062518fe40]   Total: 524 packets (50304 bytes) demuxed
[AVIOContext @ 00000206251b0980] Statistics: 50541 bytes read, 0 seeks
[in#2/srt @ 00000206251952c0] Input file #2 (output/subtitles.srt):
[in#2/srt @ 00000206251952c0]   Input stream #2:0 (subtitle): 3 packets read (160 bytes); 3 frames decoded; 0 decode errors; 
[in#2/srt @ 00000206251952c0]   Total: 3 packets (160 bytes) demuxed
[AVIOContext @ 00000206251b05c0] Statistics: 274 bytes read, 0 seeks
